<svg version="1.1" id="Layer_1" xmlns="http://www.w3.org/2000/svg" xmlns:xlink="http://www.w3.org/1999/xlink" x="0px" y="0px"
	 width="120%" viewBox="0 0 1080 360" enable-background="new 0 0 1080 360" xml:space="preserve">
<path fill="#13151A" opacity="1.000000" stroke="none" 
	d="
M820.000000,361.000000 
	C546.666687,361.000000 273.833344,361.000000 1.000000,361.000000 
	C1.000000,241.000000 1.000000,121.000000 1.000000,1.000000 
	C361.000000,1.000000 721.000000,1.000000 1081.000000,1.000000 
	C1081.000000,121.000000 1081.000000,241.000000 1081.000000,361.000000 
	C994.166687,361.000000 907.333313,361.000000 820.000000,361.000000 
M147.000000,42.998779 
	C147.000000,42.998779 147.125763,42.871651 147.011353,42.194401 
	C140.431259,35.167934 133.926834,28.067968 127.220558,21.164078 
	C125.431465,19.322275 123.793381,19.881117 122.806831,22.537350 
	C120.102943,29.817394 117.109383,36.990082 114.420845,44.275513 
	C112.684158,48.981625 112.098679,49.357994 107.951897,46.269524 
	C103.562157,43.000084 99.509987,39.262989 95.023064,36.143383 
	C91.907341,33.977127 90.749878,31.924194 91.667915,27.926004 
	C92.885315,22.624090 88.849266,17.164606 83.993286,16.205896 
	C78.821167,15.184771 72.793839,19.100510 71.370735,24.406319 
	C70.119568,29.071136 73.461288,35.206223 78.504913,36.529331 
	C82.240387,37.509270 83.453255,39.818989 84.103127,43.218433 
	C84.512192,45.358185 85.687332,47.351479 86.534721,49.942257 
	C86.587784,50.292728 86.640839,50.643200 86.319847,51.603352 
	C86.317528,52.430103 86.152100,53.295586 86.337814,54.077682 
	C88.462601,63.025692 90.387184,72.032684 92.886162,80.876724 
	C94.837112,87.781250 95.780769,95.169441 102.043381,100.263329 
	C109.800613,106.572922 118.571236,110.510963 128.188751,112.711296 
	C131.804626,113.538544 135.533539,113.871826 139.826843,114.564819 
	C140.246094,114.561501 140.665344,114.558174 141.554108,115.160294 
	C143.952927,115.694771 146.347214,116.666885 148.751312,116.691795 
	C163.004562,116.839462 177.261536,116.870514 191.513504,116.671761 
	C193.990280,116.637222 196.449203,115.320435 199.548248,114.642815 
	C199.965088,114.581367 200.381943,114.519920 201.638275,114.762672 
	C208.611252,113.056305 215.821823,111.989212 222.505783,109.505180 
	C234.892593,104.901756 244.874573,97.903954 247.255173,83.203865 
	C248.935257,72.829475 252.259872,62.727226 254.684875,52.464397 
	C255.493088,49.043919 255.788132,45.502178 256.425690,41.489758 
	C256.452820,41.133053 256.479950,40.776344 257.054810,40.017471 
	C258.667816,38.940098 260.143097,37.442486 261.918488,36.860481 
	C268.463287,34.714954 271.486450,29.611126 269.776245,23.010368 
	C268.648254,18.656845 262.627747,15.230330 257.841675,16.217939 
	C252.408646,17.339045 249.016510,22.672194 249.593735,28.682976 
	C249.745773,30.266214 249.523026,32.580711 248.513687,33.464462 
	C243.024689,38.270447 237.251495,42.753601 231.541779,47.304794 
	C229.425079,48.992001 227.808777,48.341114 226.922714,45.928375 
	C224.474350,39.261528 221.938248,32.620575 219.732513,25.872734 
	C217.500031,19.043087 216.093185,18.613117 210.981964,23.775019 
	C210.162308,24.602808 209.367035,25.455540 208.529984,26.265186 
	C202.472748,32.124256 196.407669,37.975212 189.795380,44.359474 
	C186.350403,38.309250 183.103378,32.414288 179.658524,26.637283 
	C177.919296,23.720627 177.417206,21.517727 179.426407,18.065422 
	C180.863937,15.595360 180.336441,11.337312 179.370529,8.294523 
	C178.409821,5.268129 176.068085,2.337168 171.158432,3.365916 
	C170.498505,3.391591 169.838577,3.417265 168.428009,3.202146 
	C161.178192,4.395674 157.119919,12.256017 161.324417,18.056692 
	C163.591629,21.184635 163.017578,23.440266 161.550125,26.119957 
	C158.860001,31.032257 155.996368,35.850578 153.358246,40.789886 
	C151.864731,43.586117 150.090546,44.817810 147.000000,42.998779 
M43.026745,208.413101 
	C37.579342,217.544937 32.162994,226.695480 26.674583,235.802597 
	C22.370792,242.944046 22.394520,242.863571 28.066833,249.210907 
	C49.131584,272.782440 70.174744,296.373413 91.172592,320.004547 
	C97.378998,326.989288 97.294197,327.052094 105.764900,323.124023 
	C107.717590,322.218506 109.716461,321.413116 111.680725,320.531891 
	C114.337624,319.339813 115.441513,320.438080 115.467873,323.087677 
	C115.497711,326.086700 115.652245,329.097565 115.448578,332.082550 
	C115.192062,335.842072 117.058350,337.946106 120.237114,339.411469 
	C133.194031,345.384369 146.015152,351.668762 159.112564,357.313385 
	C166.451859,360.476410 174.434143,360.475128 181.772797,357.313141 
	C194.869110,351.670349 207.786163,345.583771 220.552139,339.228699 
	C222.737473,338.140778 224.498383,334.987457 225.196625,332.442871 
	C226.006058,329.493103 225.405380,326.161743 225.454971,322.996582 
	C225.498352,320.226135 226.785202,319.445862 229.336823,320.572327 
	C232.526764,321.980621 235.893219,323.054871 238.924713,324.739075 
	C242.439789,326.691986 244.712158,325.612640 247.108551,322.850983 
	C254.305450,314.557007 261.645569,306.386719 268.966919,298.201385 
	C284.162506,281.212555 299.334259,264.201904 314.633942,247.307205 
	C317.514557,244.126266 317.981873,241.473541 315.565308,237.670380 
	C309.154327,227.580933 303.300049,217.137863 296.894958,207.044449 
	C294.402069,203.116089 294.795166,200.110397 297.597260,196.712494 
	C300.873138,192.739960 303.752350,188.442429 306.973572,184.422028 
	C309.511139,181.254852 309.497101,178.494720 307.333923,174.938522 
	C296.637360,157.353683 285.832947,139.815399 275.822357,121.839813 
	C270.240448,111.816605 263.417725,104.163101 252.144318,100.724297 
	C249.308777,99.859360 247.665604,100.059143 245.483566,101.785240 
	C240.821396,105.473244 236.304932,109.615005 231.065353,112.253296 
	C215.000992,120.342216 197.494141,122.844383 179.772736,123.077621 
	C168.336700,123.228134 156.859558,122.209534 145.440399,121.245934 
	C126.729637,119.667015 109.044609,115.184845 94.929955,101.607796 
	C94.029381,100.741508 92.284630,99.516479 91.606552,99.845848 
	C84.565620,103.265869 75.935333,104.219543 71.401588,111.710968 
	C58.420666,133.160233 45.498268,154.646255 32.812447,176.270111 
	C31.841314,177.925491 32.123306,181.249619 33.172909,182.978409 
	C36.093868,187.789474 39.490528,192.369659 43.147739,196.658646 
	C46.445957,200.526642 46.500229,203.994049 43.026745,208.413101 
M687.486816,230.044495 
	C703.235962,214.292465 718.985107,198.540436 734.375122,183.147598 
	C731.365906,180.104294 728.533020,177.239334 726.053955,174.732193 
	C709.413696,191.371826 692.634155,208.150772 675.626587,225.157700 
	C678.302551,227.565170 681.224609,230.194061 684.367249,233.021393 
	C685.095764,232.338196 686.041870,231.450958 687.486816,230.044495 
M609.583130,233.024506 
	C612.177429,233.024506 614.771790,233.024506 617.250732,233.024506 
	C617.250732,213.101944 617.250732,193.797607 617.250732,174.550201 
	C613.048340,174.550201 609.285034,174.550201 605.080139,174.550201 
	C605.080139,193.383148 605.032959,211.941772 605.231018,230.497772 
	C605.240173,231.352020 607.451050,232.182770 609.583130,233.024506 
M338.077759,194.500275 
	C338.077759,207.261703 338.077759,220.023148 338.077759,232.682419 
	C342.603790,232.682419 346.504089,232.682419 350.335571,232.682419 
	C350.335571,213.104553 350.335571,193.870865 350.335571,174.650223 
	C346.077911,174.650223 342.184143,174.650223 338.077759,174.650223 
	C338.077759,181.185135 338.077759,187.342880 338.077759,194.500275 
M421.687042,214.499115 
	C421.687042,201.229660 421.687042,187.960220 421.687042,174.624222 
	C417.139740,174.624222 413.246277,174.624222 409.361023,174.624222 
	C409.361023,194.224823 409.361023,213.471573 409.361023,232.714752 
	C413.549713,232.714752 417.450104,232.714752 421.687042,232.714752 
	C421.687042,226.773605 421.687042,221.135925 421.687042,214.499115 
M799.027039,227.400681 
	C799.027039,209.844482 799.027039,192.288284 799.027039,174.531555 
	C794.777588,174.531555 791.035034,174.531555 787.006042,174.531555 
	C787.006042,194.061905 787.006042,213.369064 787.006042,232.839386 
	C791.014893,232.839386 794.771118,232.839386 799.027039,232.839386 
	C799.027039,231.253860 799.027039,229.815811 799.027039,227.400681 
M884.959167,194.500275 
	C884.959167,207.230316 884.959167,219.960358 884.959167,232.687592 
	C889.355896,232.687592 893.242676,232.687592 896.981934,232.687592 
	C896.981934,213.166138 896.981934,193.960388 896.981934,174.533356 
	C892.960388,174.533356 889.218689,174.533356 884.959167,174.533356 
	C884.959167,180.983215 884.959167,187.241898 884.959167,194.500275 
M442.557495,174.308014 
	C440.786926,174.308014 439.016327,174.308014 437.321289,174.308014 
	C437.321289,194.241989 437.321289,213.574692 437.321289,232.742264 
	C441.454163,232.742264 445.222351,232.742264 449.043610,232.742264 
	C449.043610,213.268555 449.043610,194.055588 449.043610,174.308014 
	C447.047974,174.308014 445.266052,174.308014 442.557495,174.308014 
M512.959167,189.504929 
	C512.959167,203.896881 512.959167,218.288834 512.959167,232.691254 
	C517.346497,232.691254 521.232971,232.691254 524.986572,232.691254 
	C524.986572,213.173218 524.986572,193.967178 524.986572,174.536499 
	C520.969788,174.536499 517.227905,174.536499 512.959167,174.536499 
	C512.959167,179.309494 512.959167,183.908447 512.959167,189.504929 
M751.763306,216.736023 
	C757.156067,222.503845 762.548828,228.271667 767.648926,233.726471 
	C771.424438,230.087860 774.149902,227.461227 776.098022,225.583801 
	C763.617493,212.784271 751.144836,199.992767 739.411194,187.959167 
	C736.488708,190.421341 733.518433,192.923752 730.631592,195.355835 
	C737.714905,202.524948 744.488708,209.380829 751.763306,216.736023 
M537.296936,200.796631 
	C534.339783,203.457779 531.382629,206.118927 528.333740,208.862625 
	C531.789368,212.356171 534.573059,215.170395 537.154724,217.780334 
	C549.073853,205.921326 560.838684,194.215851 572.857239,182.257904 
	C570.046753,179.629730 567.168945,176.938553 564.141846,174.107773 
	C555.441833,182.756042 546.619202,191.526169 537.296936,200.796631 
M987.506104,233.000595 
	C1000.915588,233.000595 1014.325073,233.000595 1027.762451,233.000595 
	C1027.762451,229.055084 1027.762451,225.645248 1027.762451,222.182709 
	C1009.498535,222.182709 991.473938,222.182709 973.371338,222.182709 
	C973.371338,225.868698 973.371338,229.264145 973.371338,233.000595 
	C977.922302,233.000595 982.216187,233.000595 987.506104,233.000595 
M392.675751,188.178131 
	C394.768707,186.602676 396.861694,185.027237 398.619415,183.704132 
	C394.815979,179.777985 392.087677,176.961655 389.759949,174.558823 
	C377.968445,186.252258 366.189667,197.933044 354.558868,209.467072 
	C357.249603,212.121414 360.038727,214.872864 363.063293,217.856552 
	C372.718109,208.179901 382.447113,198.428864 392.675751,188.178131 
M468.512695,185.758514 
	C478.086029,185.758514 487.659393,185.758514 497.381836,185.758514 
	C497.381836,181.666275 497.381836,178.142776 497.381836,174.523560 
	C483.157043,174.523560 469.296783,174.523560 455.337463,174.523560 
	C455.337463,178.333420 455.337463,181.870346 455.337463,185.758499 
	C459.610657,185.758499 463.564575,185.758499 468.512695,185.758514 
M665.942932,183.209274 
	C665.942932,180.306671 665.942932,177.404068 665.942932,174.596695 
	C651.277527,174.596695 637.408020,174.596695 623.607971,174.596695 
	C623.607971,178.474152 623.607971,182.001205 623.607971,185.752869 
	C637.148865,185.752869 650.260376,185.783249 663.370850,185.682983 
	C664.225220,185.676453 665.071960,184.667267 665.942932,183.209274 
M1020.486511,174.255127 
	C1010.784363,174.255127 1001.082153,174.255127 991.507507,174.255127 
	C991.507507,178.532822 991.507507,181.943634 991.507507,185.511215 
	C1005.703186,185.511215 1019.567688,185.511215 1033.636963,185.511215 
	C1033.636963,181.730927 1033.636963,178.201050 1033.636963,174.255127 
	C1029.386475,174.255127 1025.433350,174.255127 1020.486511,174.255127 
M957.973145,211.470581 
	C957.973145,202.909439 957.973145,194.348312 957.973145,185.913635 
	C953.399353,185.913635 949.526184,185.913635 945.724609,185.913635 
	C945.724609,198.104568 945.724609,209.864410 945.724609,221.662872 
	C949.895935,221.662872 953.790710,221.662872 957.973145,221.662872 
	C957.973145,218.393997 957.973145,215.425690 957.973145,211.470581 
M634.525757,233.004501 
	C644.916321,233.004501 655.306824,233.004501 665.603516,233.004501 
	C665.603516,228.950714 665.603516,225.552902 665.603516,222.145142 
	C651.419678,222.145142 637.542969,222.145142 623.461060,222.145142 
	C623.461060,225.789429 623.461060,229.180618 623.461060,233.004501 
	C626.975098,233.004501 630.255554,233.004501 634.525757,233.004501 
M485.483002,233.004547 
	C489.417633,233.004547 493.352295,233.004547 497.437561,233.004547 
	C497.437561,229.103622 497.437561,225.709167 497.437561,222.243866 
	C483.194122,222.243866 469.211304,222.243866 455.357605,222.243866 
	C455.357605,225.999420 455.357605,229.396118 455.357605,233.004547 
	C465.273712,233.004547 474.880615,233.004547 485.483002,233.004547 
M906.786194,174.257172 
	C902.503906,174.765427 901.843994,177.152145 903.708618,185.470276 
	C916.276611,185.470276 928.853027,185.470276 941.506958,185.470276 
	C941.506958,181.644394 941.506958,178.111954 941.506958,174.257004 
	C929.999023,174.257004 918.865051,174.257004 906.786194,174.257172 
M985.691589,190.502411 
	C985.691589,185.233444 985.691589,179.964462 985.691589,174.610580 
	C981.155945,174.610580 977.265320,174.610580 973.356201,174.610580 
	C973.356201,186.193542 973.356201,197.431152 973.356201,208.693359 
	C977.537964,208.693359 981.432861,208.693359 985.691589,208.693359 
	C985.691589,202.763702 985.691589,197.132080 985.691589,190.502411 
M941.844055,225.617722 
	C942.225403,222.979126 941.480225,221.715912 938.421448,221.826248 
	C932.098755,222.054321 925.762085,221.894745 919.431152,221.894669 
	C914.013977,221.894608 908.596741,221.894653 903.388062,221.894653 
	C903.388062,226.034912 903.388062,229.439346 903.388062,232.723938 
	C916.321106,232.723938 928.912598,232.723938 941.844177,232.723938 
	C941.844177,230.483963 941.844177,228.518738 941.844055,225.617722 
M1042.405151,232.998962 
	C1043.639038,232.395737 1045.936035,231.813583 1045.948486,231.186172 
	C1046.167114,220.160660 1046.106689,209.129608 1046.106689,198.161041 
	C1041.702148,198.161041 1037.955444,198.161041 1034.186279,198.161041 
	C1034.186279,209.873672 1034.186279,221.346649 1034.186279,232.999039 
	C1036.832153,232.999039 1039.138062,232.999039 1042.405151,232.998962 
M804.860291,183.851471 
	C805.262451,184.464157 805.659851,185.608368 806.067444,185.611984 
	C816.973206,185.709396 827.880005,185.689529 838.759155,185.689529 
	C838.759155,181.614838 838.759155,178.176834 838.759155,174.503235 
	C827.452087,174.503235 816.381653,174.503235 804.846680,174.503235 
	C804.846680,177.392517 804.846680,180.189438 804.860291,183.851471 
M846.387695,213.056580 
	C853.189575,219.835464 859.991455,226.614334 866.371155,232.972458 
	C869.543335,230.131836 872.436646,227.540863 875.126648,225.132019 
	C866.916748,216.984100 858.924072,209.051819 851.127502,201.314133 
	C848.527100,203.795471 845.711121,206.482483 842.173157,209.858505 
	C843.467163,210.792328 844.678711,211.666672 846.387695,213.056580 
M1028.000122,199.653152 
	C1027.069702,199.074570 1026.144531,198.002319 1025.208252,197.992630 
	C1013.971436,197.876282 1002.733093,197.917404 991.573120,197.917404 
	C991.573120,202.000946 991.573120,205.388901 991.573120,208.732605 
	C1003.842285,208.732605 1015.755981,208.732605 1028.005371,208.732605 
	C1028.005371,205.870239 1028.005371,203.241196 1028.000122,199.653152 
M714.775574,221.960434 
	C723.536682,221.960434 732.297791,221.960434 741.235718,221.960434 
	C741.235718,218.021713 741.235718,214.495270 741.235718,210.950134 
	C730.844116,210.950134 720.804016,210.950134 710.465027,210.950134 
	C710.465027,213.905670 710.134583,216.605743 710.618835,219.150803 
	C710.828369,220.252075 712.718811,221.033554 714.775574,221.960434 
M824.495605,197.920517 
	C818.079651,197.920517 811.663635,197.920517 805.093628,197.920517 
	C805.093628,201.774094 805.093628,205.162796 805.093628,208.652649 
	C816.460510,208.652649 827.612976,208.652649 838.663879,208.652649 
	C838.663879,204.932022 838.663879,201.537537 838.663879,197.920517 
	C834.072510,197.920517 829.782410,197.920517 824.495605,197.920517 
M380.130371,208.836639 
	C377.752136,210.854004 375.373871,212.871368 373.241028,214.680557 
	C379.872589,221.329407 385.704681,227.176682 391.332855,232.819519 
	C393.856506,230.191864 396.547089,227.390381 399.731079,224.075180 
	C394.578644,219.115479 389.250702,213.897568 383.777435,208.836838 
	C383.129791,208.238022 381.686035,208.500214 380.130371,208.836639 
M844.763367,188.441818 
	C844.763367,191.537415 844.763367,194.632996 844.763367,197.624832 
	C849.167664,197.624832 853.046204,197.624832 856.775879,197.624832 
	C856.775879,189.740326 856.775879,182.201324 856.775879,174.485443 
	C852.736328,174.485443 848.995056,174.485443 844.763428,174.485443 
	C844.763428,178.934860 844.763428,183.203720 844.763367,188.441818 
M561.576416,211.828003 
	C560.334839,209.888016 559.093262,207.948044 557.851624,206.008057 
	C557.435669,206.571198 557.019653,207.134354 556.603638,207.697510 
	C553.848145,210.289352 551.092712,212.881210 548.917236,214.927490 
	C554.991394,220.908264 560.957703,226.782791 566.191345,231.935974 
	C568.537659,229.830078 571.330627,227.323349 574.626160,224.365479 
	C570.440063,220.346344 566.267395,216.340118 561.576416,211.828003 
z"/>
<path fill="#7D45EB" opacity="1.000000" stroke="none" 
	d="
M43.203403,208.088623 
	C46.500229,203.994049 46.445957,200.526642 43.147739,196.658646 
	C39.490528,192.369659 36.093868,187.789474 33.172909,182.978409 
	C32.123306,181.249619 31.841314,177.925491 32.812447,176.270111 
	C45.498268,154.646255 58.420666,133.160233 71.401588,111.710968 
	C75.935333,104.219543 84.565620,103.265869 91.606552,99.845848 
	C92.284630,99.516479 94.029381,100.741508 94.929955,101.607796 
	C109.044609,115.184845 126.729637,119.667015 145.440399,121.245934 
	C156.859558,122.209534 168.336700,123.228134 179.772736,123.077621 
	C197.494141,122.844383 215.000992,120.342216 231.065353,112.253296 
	C236.304932,109.615005 240.821396,105.473244 245.483566,101.785240 
	C247.665604,100.059143 249.308777,99.859360 252.144318,100.724297 
	C263.417725,104.163101 270.240448,111.816605 275.822357,121.839813 
	C285.832947,139.815399 296.637360,157.353683 307.333923,174.938522 
	C309.497101,178.494720 309.511139,181.254852 306.973572,184.422028 
	C303.752350,188.442429 300.873138,192.739960 297.597260,196.712494 
	C294.795166,200.110397 294.402069,203.116089 296.894958,207.044449 
	C303.300049,217.137863 309.154327,227.580933 315.565308,237.670380 
	C317.981873,241.473541 317.514557,244.126266 314.633942,247.307205 
	C299.334259,264.201904 284.162506,281.212555 268.966919,298.201385 
	C261.645569,306.386719 254.305450,314.557007 247.108551,322.850983 
	C244.712158,325.612640 242.439789,326.691986 238.924713,324.739075 
	C235.893219,323.054871 232.526764,321.980621 229.336823,320.572327 
	C226.785202,319.445862 225.498352,320.226135 225.454971,322.996582 
	C225.405380,326.161743 226.006058,329.493103 225.196625,332.442871 
	C224.498383,334.987457 222.737473,338.140778 220.552139,339.228699 
	C207.786163,345.583771 194.869110,351.670349 181.772797,357.313141 
	C174.434143,360.475128 166.451859,360.476410 159.112564,357.313385 
	C146.015152,351.668762 133.194031,345.384369 120.237114,339.411469 
	C117.058350,337.946106 115.192062,335.842072 115.448578,332.082550 
	C115.652245,329.097565 115.497711,326.086700 115.467873,323.087677 
	C115.441513,320.438080 114.337624,319.339813 111.680725,320.531891 
	C109.716461,321.413116 107.717590,322.218506 105.764900,323.124023 
	C97.294197,327.052094 97.378998,326.989288 91.172592,320.004547 
	C70.174744,296.373413 49.131584,272.782440 28.066833,249.210907 
	C22.394520,242.863571 22.370792,242.944046 26.674583,235.802597 
	C32.162994,226.695480 37.579342,217.544937 43.203403,208.088623 
M86.096352,199.880081 
	C86.096352,199.880081 86.253128,199.788055 86.169876,200.473419 
	C86.836136,200.921967 87.502396,201.370514 88.016418,201.984177 
	C88.016418,201.984177 88.182739,201.833267 88.122673,202.537781 
	C90.035172,204.392319 91.947670,206.246857 93.938034,208.055756 
	C93.938034,208.055756 93.901497,208.138275 93.990219,208.733109 
	C94.582733,209.205231 95.175255,209.677353 95.840355,210.159683 
	C95.840355,210.159683 95.849930,210.232346 95.952843,210.804382 
	C96.534195,211.255432 97.115547,211.706482 98.163078,212.566238 
	C98.620888,213.239288 99.078697,213.912354 99.248459,215.187912 
	C99.432243,215.782303 99.616028,216.376694 99.750458,217.531433 
	C99.512688,218.030197 99.274918,218.528961 98.350449,219.088577 
	C95.740952,223.203186 93.131462,227.317795 90.356224,231.784515 
	C90.356224,231.784515 90.104752,232.081497 89.408638,232.108536 
	C87.718513,234.262512 85.837334,236.295700 84.381630,238.597900 
	C82.009171,242.349945 82.512497,245.712662 86.793587,248.785416 
	C87.365219,249.715637 87.936852,250.645844 88.275002,252.298477 
	C90.807335,255.896103 93.339668,259.493744 95.959953,263.023010 
	C95.959953,263.023010 95.899101,263.116302 95.902267,263.835449 
	C96.980400,265.188263 98.058533,266.541077 99.322998,268.236176 
	C99.322998,268.236176 99.424820,268.612335 99.248894,269.377380 
	C100.572998,270.247437 102.530411,272.162750 103.113380,271.809570 
	C105.879753,270.133453 108.271400,267.838867 111.160400,265.441528 
	C111.432014,265.259064 111.724709,265.121368 112.744118,265.002686 
	C115.544846,262.749939 118.345581,260.497192 121.439781,257.763000 
	C121.898048,257.451935 122.356308,257.140869 123.552353,256.956421 
	C127.318703,253.922455 131.085068,250.888489 134.997650,248.000000 
	C134.997650,248.000000 134.855453,247.851089 135.581024,247.855225 
	C135.874207,247.093933 136.167389,246.332642 136.532379,244.696091 
	C136.511215,235.272171 136.490036,225.848236 136.742294,215.708511 
	C135.360962,214.202881 134.258484,212.140106 132.551254,211.285645 
	C124.001625,207.006561 115.273743,203.085037 106.663910,198.923248 
	C105.456764,198.339722 103.822296,197.244705 103.646515,196.178574 
	C103.063957,192.645279 109.532570,185.244797 113.782730,184.648209 
	C113.782730,184.648209 114.132790,184.834503 114.172447,185.536163 
	C117.604637,187.487076 121.036835,189.438004 124.964371,191.640778 
	C125.254158,191.870712 125.543945,192.100647 126.007660,192.959839 
	C132.391495,196.928772 138.775330,200.897690 145.364777,205.217072 
	C145.364777,205.217072 145.467606,205.610153 145.159119,206.568527 
	C145.109344,216.880280 144.992966,227.192352 145.043106,237.503616 
	C145.062729,241.540359 146.642685,244.304535 151.939957,243.509964 
	C152.291962,243.563095 152.643967,243.616241 153.270920,244.315674 
	C154.831329,244.640198 156.391754,244.964706 158.665863,245.312668 
	C159.362991,245.456940 160.060120,245.601227 161.100876,246.320557 
	C166.778336,249.829376 174.856812,249.602020 180.645432,245.683182 
	C181.286957,245.606003 181.928497,245.528824 183.296188,245.771881 
	C184.531769,245.120071 185.767365,244.468246 187.643356,243.687546 
	C188.291992,243.612488 188.940628,243.537430 190.353409,243.767731 
	C192.209473,242.078171 195.616745,240.435120 195.669022,238.691467 
	C195.999741,227.660004 195.587479,216.606247 195.542221,205.147247 
	C195.542221,205.147247 195.767471,204.780716 196.488632,204.820923 
	C198.372116,203.299606 200.255600,201.778290 202.615662,199.988358 
	C202.959351,199.867889 203.303024,199.747421 204.375061,199.797928 
	C207.958282,197.273834 211.541489,194.749756 215.407516,191.954987 
	C215.407516,191.954987 215.748016,191.761887 216.489243,191.875214 
	C219.630783,190.071152 222.949539,188.512268 225.869675,186.401855 
	C229.640350,183.676727 231.871704,184.964462 233.745544,188.548782 
	C235.276367,191.476929 236.902420,194.355316 238.407684,197.358078 
	C238.407684,197.358078 238.287704,197.405518 237.550400,197.242828 
	C228.543457,201.513885 219.519379,205.749634 210.552246,210.102676 
	C209.486115,210.620224 208.730820,211.778107 207.402939,212.830139 
	C207.402939,212.830139 206.953903,212.965927 206.230835,212.999893 
	C205.629166,214.125656 205.027496,215.251419 204.422684,217.264221 
	C204.421204,226.719574 204.419724,236.174927 204.179703,246.346542 
	C205.525711,247.499329 206.871704,248.652130 208.580917,249.946869 
	C208.580917,249.946869 208.909302,250.157150 209.014191,250.826385 
	C211.067245,252.149933 213.120300,253.473480 215.072159,254.982025 
	C215.072159,254.982025 215.199188,254.813538 215.175400,255.512878 
	C217.844406,257.287903 220.513412,259.062897 223.556046,260.976135 
	C223.556046,260.976135 223.892563,261.189392 223.989563,261.872314 
	C225.088791,262.488861 226.188019,263.105377 227.781387,264.051178 
	C228.566101,264.646210 229.350815,265.241241 230.145111,266.540314 
	C232.161713,268.174377 233.980576,270.205322 236.248352,271.335327 
	C238.712296,272.563049 241.660049,273.074432 241.590897,268.169403 
	C241.590897,268.169403 241.791565,267.820221 242.498535,267.805664 
	C247.291702,260.524139 252.276733,253.358337 256.775055,245.899033 
	C258.371674,243.251434 259.042755,239.822266 254.639359,237.788834 
	C254.639359,237.788834 254.526276,237.409195 254.740662,236.688721 
	C253.437119,235.172943 252.133591,233.657166 250.436264,231.758957 
	C250.208511,231.261230 249.980759,230.763504 249.862198,229.536667 
	C247.209427,226.048752 244.556656,222.560852 241.680649,218.751007 
	C241.680649,218.751007 241.551453,218.381180 241.813354,217.592529 
	C242.255096,215.796219 242.696823,213.999908 243.133179,212.137222 
	C243.133179,212.137222 243.199432,212.130402 243.789581,212.003677 
	C244.223495,211.377548 244.657410,210.751419 245.045227,210.044525 
	C245.045227,210.044525 245.125717,210.091141 245.793030,209.990570 
	C248.109024,207.254135 250.425018,204.517715 252.877350,201.878815 
	C252.877350,201.878815 252.779129,201.742981 253.473724,201.818970 
	C255.330246,200.006027 257.259369,198.260895 259.028870,196.366684 
	C263.332153,191.760162 262.604279,187.836960 256.666595,183.765488 
	C256.666595,183.765488 256.566528,183.383499 256.758118,182.657791 
	C254.286621,179.040512 251.815125,175.423248 249.249207,171.776611 
	C249.249207,171.776611 249.219193,171.682434 249.154800,170.982147 
	C247.821411,168.578232 246.706833,166.010849 245.076675,163.828613 
	C244.014084,162.406128 242.074280,160.292892 240.785965,164.391708 
	C240.785965,164.391708 240.420731,164.512344 239.718826,164.266403 
	C238.092148,165.423676 236.465469,166.580933 234.831650,167.810394 
	C234.831650,167.810394 234.759705,167.819489 234.042374,167.863388 
	C229.307449,170.802567 224.572525,173.741730 219.411835,177.033722 
	C219.086288,177.204498 218.760757,177.375275 217.713120,177.284531 
	C213.173874,180.231354 208.634613,183.178192 203.754929,186.319809 
	C203.754929,186.319809 203.378235,186.429077 202.671249,186.227768 
	C201.061020,187.381210 199.450790,188.534653 197.412857,190.050140 
	C197.085068,190.226593 196.757278,190.403030 195.614380,190.207321 
	C195.020523,190.185257 194.426651,190.163193 193.646088,189.249359 
	C193.666824,186.835052 193.687561,184.420761 194.367798,181.758881 
	C194.847565,180.782776 195.327332,179.806671 195.980347,178.950806 
	C195.980347,178.950806 195.824799,178.808243 196.529312,178.857773 
	C198.387985,176.954117 200.246658,175.050461 202.066986,173.067261 
	C202.066986,173.067261 202.146454,173.105789 202.832657,173.026718 
	C205.931458,170.095184 209.030258,167.163651 212.500549,163.828461 
	C212.910904,163.467972 213.321259,163.107468 214.423141,162.833664 
	C214.882690,162.161987 215.342224,161.490311 215.939987,160.975204 
	C215.939987,160.975204 215.826752,160.799805 216.509705,160.848465 
	C216.965164,160.182861 217.420639,159.517258 218.193680,158.492874 
	C218.443481,158.288818 218.719193,158.129608 219.650696,157.975189 
	C220.120316,157.349167 220.589951,156.723129 221.490555,155.652435 
	C222.397247,154.815170 223.303940,153.977905 224.907394,153.119263 
	C226.956207,151.526764 229.211838,150.128860 230.968689,148.261673 
	C231.880173,147.292938 232.651123,145.081085 232.147217,144.175766 
	C231.532303,143.071075 229.152405,141.844681 228.159119,142.239380 
	C222.915787,144.322968 217.868683,146.900345 212.177948,149.536530 
	C211.771988,149.609528 211.366043,149.682526 210.573212,149.376511 
	C209.637222,150.045105 208.701248,150.713699 207.188812,151.609756 
	C206.783249,151.683777 206.377686,151.757812 205.489044,151.387115 
	C201.701370,152.770645 197.832001,153.969406 194.151993,155.596481 
	C191.232513,156.887283 188.544952,158.702698 185.176132,160.513519 
	C184.769592,160.589569 184.363068,160.665604 183.572769,160.363007 
	C182.635254,161.025452 181.697723,161.687897 180.184753,162.578659 
	C179.778671,162.647888 179.372589,162.717117 178.578125,162.399963 
	C177.641739,163.074844 176.705353,163.749725 175.196259,164.658783 
	C174.790848,164.729965 174.385422,164.801147 173.499023,164.415207 
	C169.674301,163.886124 165.849564,163.357056 161.410049,162.754639 
	C161.017044,162.632095 160.624023,162.509552 160.023453,161.872925 
	C159.026138,161.513702 158.028809,161.154480 156.416229,160.707520 
	C156.024063,160.576355 155.631882,160.445190 154.947952,159.742020 
	C146.483948,156.351013 138.019943,152.960007 129.032974,149.490204 
	C128.691025,149.404907 128.349060,149.319611 127.726028,148.557327 
	C122.497528,146.611221 117.269028,144.665100 111.445869,142.780167 
	C111.250847,142.821091 111.055824,142.862015 110.139481,142.913559 
	C109.578087,144.158127 108.253761,146.223801 108.573082,146.520508 
	C111.836464,149.552765 115.366943,152.297562 119.182228,155.470490 
	C119.424088,155.699997 119.665947,155.929520 120.003799,156.768509 
	C120.640114,157.199402 121.276428,157.630295 122.465500,158.331772 
	C123.352188,159.171112 124.238876,160.010468 125.134888,161.533493 
	C125.817299,161.951904 126.499702,162.370331 127.069710,162.967758 
	C127.069710,162.967758 127.209290,162.808975 127.182709,163.500504 
	C131.045944,166.717239 134.909164,169.933990 138.843353,173.158783 
	C138.843353,173.158783 138.852188,173.229630 138.975983,173.827072 
	C139.621155,174.240570 140.266312,174.654083 140.991577,175.015457 
	C140.991577,175.015457 140.931000,175.089432 140.997406,175.768570 
	C143.081848,178.181458 145.166306,180.594345 147.308655,183.889038 
	C147.237503,185.950485 147.166336,188.011917 146.218155,190.068527 
	C145.666214,190.247040 145.114258,190.425568 144.041214,190.405594 
	C143.734695,190.196808 143.428177,189.988022 142.978088,189.119492 
	C141.184402,188.236633 139.390717,187.353775 137.210266,186.366013 
	C137.210266,186.366013 136.857956,186.175018 136.827377,185.469879 
	C132.066513,182.842941 127.305649,180.216019 122.034187,177.383972 
	C121.732452,177.176804 121.430717,176.969650 120.984642,176.105560 
	C119.196358,175.211807 117.408081,174.318039 115.238121,173.325684 
	C115.238121,173.325684 114.887787,173.144928 114.841263,172.440231 
	C111.948570,170.914810 109.055878,169.389389 106.076874,167.902130 
	C106.076874,167.902130 106.121681,167.819092 105.971085,167.155029 
	C104.166191,166.290604 102.361305,165.426178 100.179214,164.448624 
	C100.179214,164.448624 99.841660,164.245804 99.847183,163.555573 
	C97.501884,160.925125 96.585617,162.521194 95.600426,165.355087 
	C95.348351,165.873337 95.096275,166.391586 94.163231,167.006775 
	C92.847359,169.413544 91.531487,171.820297 89.910095,174.760880 
	C89.455887,175.441208 89.001678,176.121536 87.938103,177.016296 
	C85.541046,180.519623 83.010048,183.940140 80.780045,187.546768 
	C77.840614,192.300766 78.550812,194.225693 84.121689,197.354691 
	C84.121689,197.354691 84.310699,197.675964 84.207954,198.375763 
	C84.879356,198.833466 85.550758,199.291153 86.096352,199.880081 
M134.891754,254.891953 
	C134.891754,254.891953 134.821289,254.879013 134.234085,254.981995 
	C133.776749,255.583603 133.319427,256.185211 132.852005,256.856201 
	C132.852005,256.856201 132.781876,256.856750 132.195374,256.959564 
	C131.751007,257.568817 131.306641,258.178070 130.849243,258.855804 
	C130.849243,258.855804 130.779648,258.851959 130.104401,258.951416 
	C129.175415,260.052704 128.246445,261.153961 127.258125,262.258057 
	C127.258125,262.258057 127.253151,262.317261 126.558815,262.210571 
	C123.115898,265.263519 119.561668,268.201172 116.254158,271.394379 
	C110.101707,277.334198 110.559601,280.023254 118.651154,285.049011 
	C118.892639,285.245056 119.077751,285.484680 119.134758,286.455414 
	C119.809975,286.915070 120.485184,287.374695 120.997368,287.975098 
	C120.997368,287.975098 121.168938,287.846588 121.124695,288.524261 
	C121.791031,288.974457 122.457367,289.424683 122.999695,289.997864 
	C122.999695,289.997864 123.126312,289.878387 123.109070,290.554688 
	C123.772675,291.009888 124.436279,291.465088 125.466103,292.238495 
	C125.675117,292.490143 125.835083,292.769836 126.034424,293.816223 
	C127.209770,294.851288 128.499756,296.878693 129.541611,296.758331 
	C135.729233,296.043549 141.859390,294.831482 148.726364,293.705109 
	C149.686798,293.648132 150.647217,293.591156 152.473877,293.849731 
	C155.317734,293.138245 158.161591,292.426758 161.716827,291.633759 
	C162.668884,291.573303 163.620926,291.512848 165.353378,291.761719 
	C166.557159,290.113617 168.679459,288.529266 168.799164,286.805847 
	C169.224533,280.681427 169.236069,274.491150 168.815872,268.366211 
	C168.678055,266.357330 167.226837,263.562073 165.557465,262.685211 
	C157.982742,258.706451 150.179138,255.133896 142.293900,251.803528 
	C140.902344,251.215820 138.729935,252.476974 136.967834,252.962570 
	C136.967834,252.962570 136.886719,252.917648 136.286087,253.007217 
	C135.817123,253.611954 135.348160,254.216675 134.891754,254.891953 
M173.102615,271.743622 
	C173.107971,276.737854 172.883255,281.749268 173.253799,286.716278 
	C173.370453,288.280090 174.889786,290.840088 176.096527,291.049927 
	C187.056732,292.955841 198.077103,294.544159 209.116974,295.929779 
	C210.599121,296.115814 212.651978,295.032715 213.815033,293.896820 
	C218.093811,289.717987 222.052750,285.214020 226.246796,280.945129 
	C228.436737,278.716095 228.571564,276.863373 226.221725,274.625671 
	C219.117905,267.860931 212.062698,261.042389 205.116104,254.116882 
	C202.870575,251.878159 200.755569,251.609848 197.980255,252.990173 
	C191.592712,256.167053 185.235199,259.461395 178.629471,262.122040 
	C174.357941,263.842529 172.564407,266.403809 173.102615,271.743622 
M152.885696,321.601654 
	C154.765457,322.251648 156.625931,322.965576 158.528610,323.539612 
	C164.164993,325.240051 169.527145,328.430878 175.842163,325.944214 
	C181.699493,323.637817 187.696548,321.683594 193.646469,319.615723 
	C201.127777,317.015656 201.932602,316.225037 201.543411,308.163849 
	C201.416885,305.543457 200.400421,301.689362 198.545807,300.674042 
	C193.456619,297.887909 187.384171,299.192902 184.980347,303.010315 
	C179.217377,312.162262 161.878723,311.748047 157.766708,305.059845 
	C154.069992,299.047150 149.287857,298.826416 143.841873,300.378998 
	C142.018707,300.898773 140.244720,303.169739 139.399002,305.064545 
	C138.655777,306.729675 139.320465,308.991760 139.222977,310.983337 
	C139.038437,314.753052 140.175674,317.336060 144.297165,318.281708 
	C147.005936,318.903259 149.545441,320.262360 152.885696,321.601654 
z"/>
<path fill="#7F46EF" opacity="1.000000" stroke="none" 
	d="
M169.178650,3.442941 
	C169.838577,3.417265 170.498505,3.391591 171.614059,3.723505 
	C179.154221,9.552238 179.421005,10.934834 175.765976,19.230822 
	C175.150711,20.627321 174.807236,22.794500 175.461304,23.992290 
	C179.329102,31.075260 183.452179,38.023777 187.660187,44.913185 
	C189.022659,47.143860 190.941406,47.497715 192.969131,45.332905 
	C196.365448,41.707043 199.793289,38.106289 203.321396,34.609524 
	C207.215698,30.749802 211.237869,27.019087 216.030685,22.443237 
	C219.481125,31.967188 222.398514,39.928593 225.245621,47.915054 
	C226.778915,52.216118 228.416519,52.761040 231.996201,49.909473 
	C237.958786,45.159679 243.831680,40.295296 249.857895,35.628395 
	C252.376373,33.677998 253.218246,31.792885 252.360519,28.437904 
	C251.431671,24.804604 252.340195,20.570576 256.343506,19.357347 
	C259.001221,18.551903 262.838013,19.066198 265.154694,20.544641 
	C266.910126,21.664915 267.985504,25.313839 267.785858,27.705835 
	C267.452545,31.699476 264.959320,34.834057 260.449127,35.008793 
	C256.572357,35.158985 255.335129,36.803154 256.507111,40.419640 
	C256.479950,40.776344 256.452820,41.133053 255.986115,41.840187 
	C254.685623,44.924820 253.704514,47.627827 252.985229,50.398800 
	C250.305099,60.723797 247.247208,70.981705 245.231384,81.438354 
	C243.622162,89.785774 240.821152,96.877724 233.323181,101.550957 
	C224.536362,107.027451 214.891861,110.066620 204.846786,112.149353 
	C203.400055,112.449310 202.143402,113.666008 200.798782,114.458473 
	C200.381943,114.519920 199.965088,114.581367 198.888916,114.412598 
	C181.632675,114.145287 165.035736,114.087791 148.438812,114.093391 
	C145.987366,114.094215 143.535995,114.393600 141.084595,114.554855 
	C140.665344,114.558174 140.246094,114.561501 139.357346,114.191978 
	C137.923309,113.253754 137.022995,112.487991 135.983978,112.154999 
	C128.341187,109.705566 120.426674,107.913315 113.085136,104.774185 
	C107.073502,102.203697 100.616806,98.680199 98.409485,92.103035 
	C95.460632,83.316322 94.129852,73.999550 91.732376,65.009575 
	C90.457649,60.229660 88.398796,55.658863 86.693893,50.993671 
	C86.640839,50.643200 86.587784,50.292728 86.677551,49.243011 
	C86.027657,44.549294 85.585190,40.429020 84.223854,36.638771 
	C83.827293,35.534664 80.764702,35.477718 78.998978,34.757401 
	C75.136261,33.181652 72.707069,27.060890 74.202461,22.905678 
	C75.438385,19.471437 80.504341,17.667263 84.939949,19.081659 
	C88.443420,20.198824 91.555984,25.915791 89.579987,29.272799 
	C87.330948,33.093678 89.440132,34.794327 91.741394,36.637741 
	C97.174370,40.989807 102.711807,45.213215 108.256233,49.423828 
	C112.452087,52.610291 114.041443,52.026302 115.891922,46.936058 
	C118.777573,38.998295 121.727890,31.084042 125.336784,21.300087 
	C129.599243,26.025307 132.856247,29.971006 136.475662,33.550217 
	C139.823975,36.861347 143.560303,39.780098 147.125763,42.871651 
	C147.125763,42.871651 147.000000,42.998779 147.047058,43.295895 
	C150.196777,47.884468 152.189911,47.688431 154.761658,42.898705 
	C157.809601,37.222057 160.625412,31.392874 164.080566,25.973269 
	C166.143906,22.736805 166.137695,20.254360 163.801697,17.453045 
	C160.685623,13.716249 162.476257,10.193727 164.697281,7.008338 
	C165.743500,5.507810 167.657730,4.612495 169.178650,3.442941 
z"/>
<path fill="#F8F8F8" opacity="1.000000" stroke="none" 
	d="
M687.237366,230.304108 
	C686.041870,231.450958 685.095764,232.338196 684.367249,233.021393 
	C681.224609,230.194061 678.302551,227.565170 675.626587,225.157700 
	C692.634155,208.150772 709.413696,191.371826 726.053955,174.732193 
	C728.533020,177.239334 731.365906,180.104294 734.375122,183.147598 
	C718.985107,198.540436 703.235962,214.292465 687.237366,230.304108 
z"/>
<path fill="#F3F3F3" opacity="1.000000" stroke="none" 
	d="
M609.109802,233.024475 
	C607.451050,232.182770 605.240173,231.352020 605.231018,230.497772 
	C605.032959,211.941772 605.080139,193.383148 605.080139,174.550201 
	C609.285034,174.550201 613.048340,174.550201 617.250732,174.550201 
	C617.250732,193.797607 617.250732,213.101944 617.250732,233.024506 
	C614.771790,233.024506 612.177429,233.024506 609.109802,233.024475 
z"/>
<path fill="#F3F3F3" opacity="1.000000" stroke="none" 
	d="
M338.077759,194.000443 
	C338.077759,187.342880 338.077759,181.185135 338.077759,174.650223 
	C342.184143,174.650223 346.077911,174.650223 350.335571,174.650223 
	C350.335571,193.870865 350.335571,213.104553 350.335571,232.682419 
	C346.504089,232.682419 342.603790,232.682419 338.077759,232.682419 
	C338.077759,220.023148 338.077759,207.261703 338.077759,194.000443 
z"/>
<path fill="#F3F3F3" opacity="1.000000" stroke="none" 
	d="
M421.687042,214.998688 
	C421.687042,221.135925 421.687042,226.773605 421.687042,232.714752 
	C417.450104,232.714752 413.549713,232.714752 409.361023,232.714752 
	C409.361023,213.471573 409.361023,194.224823 409.361023,174.624222 
	C413.246277,174.624222 417.139740,174.624222 421.687042,174.624222 
	C421.687042,187.960220 421.687042,201.229660 421.687042,214.998688 
z"/>
<path fill="#FDFDFE" opacity="1.000000" stroke="none" 
	d="
M799.027039,227.889221 
	C799.027039,229.815811 799.027039,231.253860 799.027039,232.839386 
	C794.771118,232.839386 791.014893,232.839386 787.006042,232.839386 
	C787.006042,213.369064 787.006042,194.061905 787.006042,174.531555 
	C791.035034,174.531555 794.777588,174.531555 799.027039,174.531555 
	C799.027039,192.288284 799.027039,209.844482 799.027039,227.889221 
z"/>
<path fill="#FDFDFE" opacity="1.000000" stroke="none" 
	d="
M884.959167,194.000427 
	C884.959167,187.241898 884.959167,180.983215 884.959167,174.533356 
	C889.218689,174.533356 892.960388,174.533356 896.981934,174.533356 
	C896.981934,193.960388 896.981934,213.166138 896.981934,232.687592 
	C893.242676,232.687592 889.355896,232.687592 884.959167,232.687592 
	C884.959167,219.960358 884.959167,207.230316 884.959167,194.000427 
z"/>
<path fill="#FDFDFE" opacity="1.000000" stroke="none" 
	d="
M443.020813,174.308014 
	C445.266052,174.308014 447.047974,174.308014 449.043610,174.308014 
	C449.043610,194.055588 449.043610,213.268555 449.043610,232.742264 
	C445.222351,232.742264 441.454163,232.742264 437.321289,232.742264 
	C437.321289,213.574692 437.321289,194.241989 437.321289,174.308014 
	C439.016327,174.308014 440.786926,174.308014 443.020813,174.308014 
z"/>
<path fill="#FDFDFE" opacity="1.000000" stroke="none" 
	d="
M512.959167,189.006165 
	C512.959167,183.908447 512.959167,179.309494 512.959167,174.536499 
	C517.227905,174.536499 520.969788,174.536499 524.986572,174.536499 
	C524.986572,193.967178 524.986572,213.173218 524.986572,232.691254 
	C521.232971,232.691254 517.346497,232.691254 512.959167,232.691254 
	C512.959167,218.288834 512.959167,203.896881 512.959167,189.006165 
z"/>
<path fill="#F9F9F9" opacity="1.000000" stroke="none" 
	d="
M751.512939,216.486359 
	C744.488708,209.380829 737.714905,202.524948 730.631592,195.355835 
	C733.518433,192.923752 736.488708,190.421341 739.411194,187.959167 
	C751.144836,199.992767 763.617493,212.784271 776.098022,225.583801 
	C774.149902,227.461227 771.424438,230.087860 767.648926,233.726471 
	C762.548828,228.271667 757.156067,222.503845 751.512939,216.486359 
z"/>
<path fill="#FDFDFD" opacity="1.000000" stroke="none" 
	d="
M537.546753,200.546463 
	C546.619202,191.526169 555.441833,182.756042 564.141846,174.107773 
	C567.168945,176.938553 570.046753,179.629730 572.857239,182.257904 
	C560.838684,194.215851 549.073853,205.921326 537.154724,217.780334 
	C534.573059,215.170395 531.789368,212.356171 528.333740,208.862625 
	C531.382629,206.118927 534.339783,203.457779 537.546753,200.546463 
z"/>
<path fill="#FEFEFE" opacity="1.000000" stroke="none" 
	d="
M987.008057,233.000595 
	C982.216187,233.000595 977.922302,233.000595 973.371338,233.000595 
	C973.371338,229.264145 973.371338,225.868698 973.371338,222.182709 
	C991.473938,222.182709 1009.498535,222.182709 1027.762451,222.182709 
	C1027.762451,225.645248 1027.762451,229.055084 1027.762451,233.000595 
	C1014.325073,233.000595 1000.915588,233.000595 987.008057,233.000595 
z"/>
<path fill="#FDFDFD" opacity="1.000000" stroke="none" 
	d="
M392.425934,188.427979 
	C382.447113,198.428864 372.718109,208.179901 363.063293,217.856552 
	C360.038727,214.872864 357.249603,212.121414 354.558868,209.467072 
	C366.189667,197.933044 377.968445,186.252258 389.759949,174.558823 
	C392.087677,176.961655 394.815979,179.777985 398.619415,183.704132 
	C396.861694,185.027237 394.768707,186.602676 392.425934,188.427979 
z"/>
<path fill="#5834A1" opacity="1.000000" stroke="none" 
	d="
M256.780945,40.218555 
	C255.335129,36.803154 256.572357,35.158985 260.449127,35.008793 
	C264.959320,34.834057 267.452545,31.699476 267.785858,27.705835 
	C267.985504,25.313839 266.910126,21.664915 265.154694,20.544641 
	C262.838013,19.066198 259.001221,18.551903 256.343506,19.357347 
	C252.340195,20.570576 251.431671,24.804604 252.360519,28.437904 
	C253.218246,31.792885 252.376373,33.677998 249.857895,35.628395 
	C243.831680,40.295296 237.958786,45.159679 231.996201,49.909473 
	C228.416519,52.761040 226.778915,52.216118 225.245621,47.915054 
	C222.398514,39.928593 219.481125,31.967188 216.030685,22.443237 
	C211.237869,27.019087 207.215698,30.749802 203.321396,34.609524 
	C199.793289,38.106289 196.365448,41.707043 192.969131,45.332905 
	C190.941406,47.497715 189.022659,47.143860 187.660187,44.913185 
	C183.452179,38.023777 179.329102,31.075260 175.461304,23.992290 
	C174.807236,22.794500 175.150711,20.627321 175.765976,19.230822 
	C179.421005,10.934834 179.154221,9.552238 171.941528,3.773672 
	C176.068085,2.337168 178.409821,5.268129 179.370529,8.294523 
	C180.336441,11.337312 180.863937,15.595360 179.426407,18.065422 
	C177.417206,21.517727 177.919296,23.720627 179.658524,26.637283 
	C183.103378,32.414288 186.350403,38.309250 189.795380,44.359474 
	C196.407669,37.975212 202.472748,32.124256 208.529984,26.265186 
	C209.367035,25.455540 210.162308,24.602808 210.981964,23.775019 
	C216.093185,18.613117 217.500031,19.043087 219.732513,25.872734 
	C221.938248,32.620575 224.474350,39.261528 226.922714,45.928375 
	C227.808777,48.341114 229.425079,48.992001 231.541779,47.304794 
	C237.251495,42.753601 243.024689,38.270447 248.513687,33.464462 
	C249.523026,32.580711 249.745773,30.266214 249.593735,28.682976 
	C249.016510,22.672194 252.408646,17.339045 257.841675,16.217939 
	C262.627747,15.230330 268.648254,18.656845 269.776245,23.010368 
	C271.486450,29.611126 268.463287,34.714954 261.918488,36.860481 
	C260.143097,37.442486 258.667816,38.940098 256.780945,40.218555 
z"/>
<path fill="#EEEEEF" opacity="1.000000" stroke="none" 
	d="
M468.015594,185.758514 
	C463.564575,185.758499 459.610657,185.758499 455.337463,185.758499 
	C455.337463,181.870346 455.337463,178.333420 455.337463,174.523560 
	C469.296783,174.523560 483.157043,174.523560 497.381836,174.523560 
	C497.381836,178.142776 497.381836,181.666275 497.381836,185.758514 
	C487.659393,185.758514 478.086029,185.758514 468.015594,185.758514 
z"/>
<path fill="#EEEEEF" opacity="1.000000" stroke="none" 
	d="
M665.932617,183.666870 
	C665.071960,184.667267 664.225220,185.676453 663.370850,185.682983 
	C650.260376,185.783249 637.148865,185.752869 623.607971,185.752869 
	C623.607971,182.001205 623.607971,178.474152 623.607971,174.596695 
	C637.408020,174.596695 651.277527,174.596695 665.942932,174.596695 
	C665.942932,177.404068 665.942932,180.306671 665.932617,183.666870 
z"/>
<path fill="#EEEEEF" opacity="1.000000" stroke="none" 
	d="
M1020.983398,174.255127 
	C1025.433350,174.255127 1029.386475,174.255127 1033.636963,174.255127 
	C1033.636963,178.201050 1033.636963,181.730927 1033.636963,185.511215 
	C1019.567688,185.511215 1005.703186,185.511215 991.507507,185.511215 
	C991.507507,181.943634 991.507507,178.532822 991.507507,174.255127 
	C1001.082153,174.255127 1010.784363,174.255127 1020.983398,174.255127 
z"/>
<path fill="#F4F4F4" opacity="1.000000" stroke="none" 
	d="
M957.973145,211.963974 
	C957.973145,215.425690 957.973145,218.393997 957.973145,221.662872 
	C953.790710,221.662872 949.895935,221.662872 945.724609,221.662872 
	C945.724609,209.864410 945.724609,198.104568 945.724609,185.913635 
	C949.526184,185.913635 953.399353,185.913635 957.973145,185.913635 
	C957.973145,194.348312 957.973145,202.909439 957.973145,211.963974 
z"/>
<path fill="#FCFCFC" opacity="1.000000" stroke="none" 
	d="
M634.030884,233.004501 
	C630.255554,233.004501 626.975098,233.004501 623.461060,233.004501 
	C623.461060,229.180618 623.461060,225.789429 623.461060,222.145142 
	C637.542969,222.145142 651.419678,222.145142 665.603516,222.145142 
	C665.603516,225.552902 665.603516,228.950714 665.603516,233.004501 
	C655.306824,233.004501 644.916321,233.004501 634.030884,233.004501 
z"/>
<path fill="#FCFCFC" opacity="1.000000" stroke="none" 
	d="
M484.985260,233.004547 
	C474.880615,233.004547 465.273712,233.004547 455.357605,233.004547 
	C455.357605,229.396118 455.357605,225.999420 455.357605,222.243866 
	C469.211304,222.243866 483.194122,222.243866 497.437561,222.243866 
	C497.437561,225.709167 497.437561,229.103622 497.437561,233.004547 
	C493.352295,233.004547 489.417633,233.004547 484.985260,233.004547 
z"/>
<path fill="#EFEFEF" opacity="1.000000" stroke="none" 
	d="
M907.258667,174.257080 
	C918.865051,174.257004 929.999023,174.257004 941.506958,174.257004 
	C941.506958,178.111954 941.506958,181.644394 941.506958,185.470276 
	C928.853027,185.470276 916.276611,185.470276 903.708618,185.470276 
	C901.843994,177.152145 902.503906,174.765427 907.258667,174.257080 
z"/>
<path fill="#F2F2F2" opacity="1.000000" stroke="none" 
	d="
M985.691589,191.001434 
	C985.691589,197.132080 985.691589,202.763702 985.691589,208.693359 
	C981.432861,208.693359 977.537964,208.693359 973.356201,208.693359 
	C973.356201,197.431152 973.356201,186.193542 973.356201,174.610580 
	C977.265320,174.610580 981.155945,174.610580 985.691589,174.610580 
	C985.691589,179.964462 985.691589,185.233444 985.691589,191.001434 
z"/>
<path fill="#FDFDFD" opacity="1.000000" stroke="none" 
	d="
M941.844116,226.085632 
	C941.844177,228.518738 941.844177,230.483963 941.844177,232.723938 
	C928.912598,232.723938 916.321106,232.723938 903.388062,232.723938 
	C903.388062,229.439346 903.388062,226.034912 903.388062,221.894653 
	C908.596741,221.894653 914.013977,221.894608 919.431152,221.894669 
	C925.762085,221.894745 932.098755,222.054321 938.421448,221.826248 
	C941.480225,221.715912 942.225403,222.979126 941.844116,226.085632 
z"/>
<path fill="#FFFFFF" opacity="1.000000" stroke="none" 
	d="
M1041.924561,232.998993 
	C1039.138062,232.999039 1036.832153,232.999039 1034.186279,232.999039 
	C1034.186279,221.346649 1034.186279,209.873672 1034.186279,198.161041 
	C1037.955444,198.161041 1041.702148,198.161041 1046.106689,198.161041 
	C1046.106689,209.129608 1046.167114,220.160660 1045.948486,231.186172 
	C1045.936035,231.813583 1043.639038,232.395737 1041.924561,232.998993 
z"/>
<path fill="#F0F0F0" opacity="1.000000" stroke="none" 
	d="
M804.853516,183.418915 
	C804.846680,180.189438 804.846680,177.392517 804.846680,174.503235 
	C816.381653,174.503235 827.452087,174.503235 838.759155,174.503235 
	C838.759155,178.176834 838.759155,181.614838 838.759155,185.689529 
	C827.880005,185.689529 816.973206,185.709396 806.067444,185.611984 
	C805.659851,185.608368 805.262451,184.464157 804.853516,183.418915 
z"/>
<path fill="#FDFDFD" opacity="1.000000" stroke="none" 
	d="
M846.138977,212.798798 
	C844.678711,211.666672 843.467163,210.792328 842.173157,209.858505 
	C845.711121,206.482483 848.527100,203.795471 851.127502,201.314133 
	C858.924072,209.051819 866.916748,216.984100 875.126648,225.132019 
	C872.436646,227.540863 869.543335,230.131836 866.371155,232.972458 
	C859.991455,226.614334 853.189575,219.835464 846.138977,212.798798 
z"/>
<path fill="#FCFCFC" opacity="1.000000" stroke="none" 
	d="
M1028.002686,200.132660 
	C1028.005371,203.241196 1028.005371,205.870239 1028.005371,208.732605 
	C1015.755981,208.732605 1003.842285,208.732605 991.573120,208.732605 
	C991.573120,205.388901 991.573120,202.000946 991.573120,197.917404 
	C1002.733093,197.917404 1013.971436,197.876282 1025.208252,197.992630 
	C1026.144531,198.002319 1027.069702,199.074570 1028.002686,200.132660 
z"/>
<path fill="#5834A1" opacity="1.000000" stroke="none" 
	d="
M147.068558,42.533028 
	C143.560303,39.780098 139.823975,36.861347 136.475662,33.550217 
	C132.856247,29.971006 129.599243,26.025307 125.336784,21.300087 
	C121.727890,31.084042 118.777573,38.998295 115.891922,46.936058 
	C114.041443,52.026302 112.452087,52.610291 108.256233,49.423828 
	C102.711807,45.213215 97.174370,40.989807 91.741394,36.637741 
	C89.440132,34.794327 87.330948,33.093678 89.579987,29.272799 
	C91.555984,25.915791 88.443420,20.198824 84.939949,19.081659 
	C80.504341,17.667263 75.438385,19.471437 74.202461,22.905678 
	C72.707069,27.060890 75.136261,33.181652 78.998978,34.757401 
	C80.764702,35.477718 83.827293,35.534664 84.223854,36.638771 
	C85.585190,40.429020 86.027657,44.549294 86.669601,48.977119 
	C85.687332,47.351479 84.512192,45.358185 84.103127,43.218433 
	C83.453255,39.818989 82.240387,37.509270 78.504913,36.529331 
	C73.461288,35.206223 70.119568,29.071136 71.370735,24.406319 
	C72.793839,19.100510 78.821167,15.184771 83.993286,16.205896 
	C88.849266,17.164606 92.885315,22.624090 91.667915,27.926004 
	C90.749878,31.924194 91.907341,33.977127 95.023064,36.143383 
	C99.509987,39.262989 103.562157,43.000084 107.951897,46.269524 
	C112.098679,49.357994 112.684158,48.981625 114.420845,44.275513 
	C117.109383,36.990082 120.102943,29.817394 122.806831,22.537350 
	C123.793381,19.881117 125.431465,19.322275 127.220558,21.164078 
	C133.926834,28.067968 140.431259,35.167934 147.068558,42.533028 
z"/>
<path fill="#F6F6F7" opacity="1.000000" stroke="none" 
	d="
M714.310669,221.960358 
	C712.718811,221.033554 710.828369,220.252075 710.618835,219.150803 
	C710.134583,216.605743 710.465027,213.905670 710.465027,210.950134 
	C720.804016,210.950134 730.844116,210.950134 741.235718,210.950134 
	C741.235718,214.495270 741.235718,218.021713 741.235718,221.960434 
	C732.297791,221.960434 723.536682,221.960434 714.310669,221.960358 
z"/>
<path fill="#FDFDFD" opacity="1.000000" stroke="none" 
	d="
M824.993958,197.920517 
	C829.782410,197.920517 834.072510,197.920517 838.663879,197.920517 
	C838.663879,201.537537 838.663879,204.932022 838.663879,208.652649 
	C827.612976,208.652649 816.460510,208.652649 805.093628,208.652649 
	C805.093628,205.162796 805.093628,201.774094 805.093628,197.920517 
	C811.663635,197.920517 818.079651,197.920517 824.993958,197.920517 
z"/>
<path fill="#F4F4F4" opacity="1.000000" stroke="none" 
	d="
M380.370850,208.599976 
	C381.686035,208.500214 383.129791,208.238022 383.777435,208.836838 
	C389.250702,213.897568 394.578644,219.115479 399.731079,224.075180 
	C396.547089,227.390381 393.856506,230.191864 391.332855,232.819519 
	C385.704681,227.176682 379.872589,221.329407 373.241028,214.680557 
	C375.373871,212.871368 377.752136,210.854004 380.370850,208.599976 
z"/>
<path fill="#FAFBFB" opacity="1.000000" stroke="none" 
	d="
M844.763428,187.957184 
	C844.763428,183.203720 844.763428,178.934860 844.763428,174.485443 
	C848.995056,174.485443 852.736328,174.485443 856.775879,174.485443 
	C856.775879,182.201324 856.775879,189.740326 856.775879,197.624832 
	C853.046204,197.624832 849.167664,197.624832 844.763367,197.624832 
	C844.763367,194.632996 844.763367,191.537415 844.763428,187.957184 
z"/>
<path fill="#FBFBFB" opacity="1.000000" stroke="none" 
	d="
M561.835571,212.080963 
	C566.267395,216.340118 570.440063,220.346344 574.626160,224.365479 
	C571.330627,227.323349 568.537659,229.830078 566.191345,231.935974 
	C560.957703,226.782791 554.991394,220.908264 548.917236,214.927490 
	C551.092712,212.881210 553.848145,210.289352 556.603638,207.697510 
	C557.019653,207.134354 557.435669,206.571198 557.851624,206.008057 
	C559.093262,207.948044 560.334839,209.888016 561.835571,212.080963 
z"/>
<path fill="#5834A1" opacity="1.000000" stroke="none" 
	d="
M201.218536,114.610573 
	C202.143402,113.666008 203.400055,112.449310 204.846786,112.149353 
	C214.891861,110.066620 224.536362,107.027451 233.323181,101.550957 
	C240.821152,96.877724 243.622162,89.785774 245.231384,81.438354 
	C247.247208,70.981705 250.305099,60.723797 252.985229,50.398800 
	C253.704514,47.627827 254.685623,44.924820 255.932159,42.103241 
	C255.788132,45.502178 255.493088,49.043919 254.684875,52.464397 
	C252.259872,62.727226 248.935257,72.829475 247.255173,83.203865 
	C244.874573,97.903954 234.892593,104.901756 222.505783,109.505180 
	C215.821823,111.989212 208.611252,113.056305 201.218536,114.610573 
z"/>
<path fill="#5834A1" opacity="1.000000" stroke="none" 
	d="
M86.506866,51.298512 
	C88.398796,55.658863 90.457649,60.229660 91.732376,65.009575 
	C94.129852,73.999550 95.460632,83.316322 98.409485,92.103035 
	C100.616806,98.680199 107.073502,102.203697 113.085136,104.774185 
	C120.426674,107.913315 128.341187,109.705566 135.983978,112.154999 
	C137.022995,112.487991 137.923309,113.253754 139.049377,114.124725 
	C135.533539,113.871826 131.804626,113.538544 128.188751,112.711296 
	C118.571236,110.510963 109.800613,106.572922 102.043381,100.263329 
	C95.780769,95.169441 94.837112,87.781250 92.886162,80.876724 
	C90.387184,72.032684 88.462601,63.025692 86.337814,54.077682 
	C86.152100,53.295586 86.317528,52.430103 86.506866,51.298512 
z"/>
<path fill="#5834A1" opacity="1.000000" stroke="none" 
	d="
M141.319351,114.857574 
	C143.535995,114.393600 145.987366,114.094215 148.438812,114.093391 
	C165.035736,114.087791 181.632675,114.145287 198.572983,114.389137 
	C196.449203,115.320435 193.990280,116.637222 191.513504,116.671761 
	C177.261536,116.870514 163.004562,116.839462 148.751312,116.691795 
	C146.347214,116.666885 143.952927,115.694771 141.319351,114.857574 
z"/>
<path fill="#5834A1" opacity="1.000000" stroke="none" 
	d="
M168.803329,3.322544 
	C167.657730,4.612495 165.743500,5.507810 164.697281,7.008338 
	C162.476257,10.193727 160.685623,13.716249 163.801697,17.453045 
	C166.137695,20.254360 166.143906,22.736805 164.080566,25.973269 
	C160.625412,31.392874 157.809601,37.222057 154.761658,42.898705 
	C152.189911,47.688431 150.196777,47.884468 147.111130,43.233803 
	C150.090546,44.817810 151.864731,43.586117 153.358246,40.789886 
	C155.996368,35.850578 158.860001,31.032257 161.550125,26.119957 
	C163.017578,23.440266 163.591629,21.184635 161.324417,18.056692 
	C157.119919,12.256017 161.178192,4.395674 168.803329,3.322544 
z"/>
<path fill="#16161F" opacity="1.000000" stroke="none" 
	d="
M88.508484,251.576065 
	C87.936852,250.645844 87.365219,249.715637 86.716995,248.137970 
	C84.090340,243.892105 84.507187,240.570862 87.270653,237.207397 
	C88.489456,235.723953 89.176361,233.803528 90.104752,232.081497 
	C90.104752,232.081497 90.356224,231.784515 90.722870,231.453186 
	C93.738731,227.090485 96.387947,223.059097 99.037155,219.027710 
	C99.274918,218.528961 99.512688,218.030197 100.032318,217.143036 
	C100.054955,216.031570 99.795731,215.308487 99.536514,214.585419 
	C99.078697,213.912354 98.620888,213.239288 97.965172,212.037766 
	C97.128159,211.083633 96.489044,210.657990 95.849930,210.232346 
	C95.849930,210.232346 95.840355,210.159683 95.822853,209.827194 
	C95.170731,209.042572 94.536110,208.590424 93.901489,208.138275 
	C93.901497,208.138275 93.938034,208.055756 93.907120,207.732773 
	C91.978394,205.550949 90.080566,203.692108 88.182739,201.833267 
	C88.182739,201.833267 88.016418,201.984177 88.052536,201.598114 
	C87.476814,200.737381 86.864967,200.262726 86.253128,199.788055 
	C86.253128,199.788055 86.096352,199.880081 86.121284,199.509811 
	C85.534378,198.651688 84.922539,198.163834 84.310699,197.675964 
	C84.310699,197.675964 84.121689,197.354691 84.000900,196.859619 
	C80.614075,193.034622 80.572510,189.905731 83.599037,186.124069 
	C85.758987,183.425201 86.933319,179.937531 88.547470,176.801849 
	C89.001678,176.121536 89.455887,175.441208 90.372055,174.371552 
	C92.170731,171.624771 93.507462,169.267288 94.844193,166.909821 
	C95.096275,166.391586 95.348351,165.873337 96.098038,165.161346 
	C97.677658,164.727005 98.759659,164.486404 99.841660,164.245804 
	C99.841660,164.245804 100.179214,164.448624 100.535538,164.782257 
	C102.635132,166.016953 104.378410,166.918015 106.121681,167.819092 
	C106.121681,167.819092 106.076874,167.902130 106.185951,168.221588 
	C109.159279,170.075684 112.023529,171.610306 114.887787,173.144928 
	C114.887787,173.144928 115.238121,173.325684 115.575928,173.670319 
	C117.652153,174.930786 119.390572,175.846634 121.128983,176.762482 
	C121.430717,176.969650 121.732452,177.176804 122.461449,177.761078 
	C127.545120,180.817139 132.201538,183.496078 136.857956,186.175018 
	C136.857956,186.175018 137.210266,186.366013 137.558472,186.707367 
	C139.645004,187.958908 141.383331,188.869080 143.121658,189.779236 
	C143.428177,189.988022 143.734695,190.196808 144.463776,190.721161 
	C145.622604,190.715607 146.358887,190.394485 147.095169,190.073364 
	C147.166336,188.011917 147.237503,185.950485 147.467743,183.197754 
	C145.394867,180.034119 143.162933,177.561768 140.931000,175.089432 
	C140.931000,175.089432 140.991577,175.015457 140.944916,174.715363 
	C140.216217,174.020050 139.534210,173.624832 138.852188,173.229630 
	C138.852188,173.229630 138.843353,173.158783 138.815582,172.815979 
	C134.928299,169.251785 131.068802,166.030380 127.209290,162.808975 
	C127.209290,162.808975 127.069710,162.967758 127.052391,162.582825 
	C126.398575,161.748520 125.762070,161.299164 125.125565,160.849823 
	C124.238876,160.010468 123.352188,159.171112 122.167580,157.872833 
	C121.215706,156.995590 120.561752,156.577316 119.907799,156.159027 
	C119.665947,155.929520 119.424088,155.699997 118.953308,154.962128 
	C117.347351,153.056931 115.706017,151.832352 114.656540,150.222031 
	C113.163353,147.930893 112.104950,145.356384 110.860794,142.902939 
	C111.055824,142.862015 111.250847,142.821091 111.928833,143.051819 
	C117.610237,145.293747 122.808678,147.264038 128.007111,149.234329 
	C128.349060,149.319611 128.691025,149.404907 129.466187,149.816620 
	C138.346176,153.533371 146.792953,156.923691 155.239716,160.314026 
	C155.631882,160.445190 156.024063,160.576355 156.840942,161.077988 
	C158.254105,161.761307 159.242569,162.074173 160.231018,162.387024 
	C160.624023,162.509552 161.017044,162.632095 161.861237,163.123047 
	C166.103134,164.783951 169.465225,169.697906 173.980011,164.872345 
	C174.385422,164.801147 174.790848,164.729965 175.803589,164.671478 
	C177.262787,164.051575 178.114639,163.418961 178.966507,162.786346 
	C179.372589,162.717117 179.778671,162.647888 180.793121,162.603119 
	C182.253174,161.998947 183.104843,161.370285 183.956528,160.741638 
	C184.363068,160.665604 184.769592,160.589569 185.816833,160.537537 
	C188.457260,159.871185 190.533478,159.345276 192.441467,158.457672 
	C196.993912,156.339874 201.466995,154.051392 205.972122,151.831848 
	C206.377686,151.757812 206.783249,151.683777 207.797791,151.630280 
	C209.257858,151.019058 210.108963,150.387283 210.960083,149.755524 
	C211.366043,149.682526 211.771988,149.609528 212.817810,149.558182 
	C218.809830,147.578217 224.161972,145.576584 229.514130,143.574966 
	C229.870010,144.088898 230.225906,144.602829 230.581802,145.116776 
	C228.458084,147.791397 226.334366,150.466034 224.210632,153.140656 
	C223.303940,153.977905 222.397247,154.815170 220.950485,155.865784 
	C219.947220,156.724518 219.484009,157.369888 219.020813,158.015274 
	C218.719193,158.129608 218.443481,158.288818 217.736511,158.730621 
	C216.795135,159.578857 216.310944,160.189331 215.826752,160.799805 
	C215.826752,160.799805 215.939987,160.975204 215.571869,160.946869 
	C214.713043,161.528000 214.222321,162.137482 213.731598,162.746979 
	C213.321259,163.107468 212.910904,163.467972 211.968353,163.994797 
	C208.339584,167.142685 205.243027,170.124237 202.146454,173.105789 
	C202.146454,173.105789 202.066986,173.067261 201.741196,173.102997 
	C199.551865,175.028564 197.688324,176.918396 195.824799,178.808243 
	C195.824799,178.808243 195.980347,178.950806 195.601471,178.945969 
	C194.717834,179.962906 194.213058,180.984680 193.708282,182.006454 
	C193.687561,184.420761 193.666824,186.835052 193.759399,189.974915 
	C194.724960,190.660126 195.577225,190.619797 196.429489,190.579468 
	C196.757278,190.403030 197.085068,190.226593 197.974457,189.918243 
	C200.150116,188.667236 201.764175,187.548157 203.378235,186.429077 
	C203.378235,186.429077 203.754929,186.319809 204.287048,186.198578 
	C209.357849,183.233582 213.896530,180.389801 218.435211,177.546036 
	C218.760757,177.375275 219.086288,177.204498 219.984802,176.907669 
	C225.291763,173.794250 230.025726,170.806870 234.759705,167.819489 
	C234.759705,167.819489 234.831650,167.810394 235.185516,167.816620 
	C237.166489,166.719345 238.793625,165.615860 240.420746,164.512360 
	C240.420731,164.512344 240.785965,164.391708 241.257965,164.407898 
	C244.226395,166.843521 246.722794,169.262970 249.219193,171.682434 
	C249.219193,171.682434 249.249207,171.776611 249.243591,172.152557 
	C251.680832,176.146835 254.123688,179.765167 256.566528,183.383499 
	C256.566528,183.383499 256.666595,183.765488 256.751160,184.309113 
	C257.161835,185.601074 257.333038,186.481461 257.839661,187.076004 
	C260.828949,190.584015 260.058411,193.365570 256.703918,196.228760 
	C255.039413,197.649475 254.065475,199.879227 252.779129,201.742981 
	C252.779129,201.742981 252.877350,201.878815 252.483490,201.894806 
	C249.768326,204.637589 247.447021,207.364365 245.125732,210.091141 
	C245.125717,210.091141 245.045227,210.044525 244.740067,210.087326 
	C244.023071,210.796890 243.611252,211.463638 243.199432,212.130402 
	C243.199432,212.130402 243.133179,212.137222 242.785446,212.181976 
	C240.270569,214.008682 238.722580,215.879791 241.551453,218.381180 
	C241.551453,218.381180 241.680649,218.751007 241.829346,219.263107 
	C244.569687,223.272064 247.161346,226.768921 249.753006,230.265778 
	C249.980759,230.763504 250.208511,231.261230 250.683258,232.286285 
	C252.128937,234.345474 253.327606,235.877335 254.526276,237.409195 
	C254.526276,237.409195 254.639359,237.788834 254.792084,238.341904 
	C254.763611,241.459595 255.359482,244.434769 254.260666,246.514587 
	C250.420334,253.783432 245.994797,260.743103 241.791565,267.820221 
	C241.791565,267.820221 241.590897,268.169403 241.221207,268.497070 
	C238.931931,268.764313 236.917450,269.045624 235.119598,268.546570 
	C233.344254,268.053772 231.787949,266.771973 230.135544,265.836273 
	C229.350815,265.241241 228.566101,264.646210 227.425568,263.577209 
	C226.010696,262.465271 224.951630,261.827332 223.892563,261.189392 
	C223.892563,261.189392 223.556046,260.976135 223.281708,260.581512 
	C220.404648,258.395782 217.801926,256.604645 215.199188,254.813538 
	C215.199188,254.813538 215.072159,254.982025 215.030975,254.571594 
	C212.962967,252.826477 210.936142,251.491806 208.909302,250.157150 
	C208.909302,250.157150 208.580917,249.946869 208.329620,249.558884 
	C206.858307,247.990692 205.638275,246.810486 204.418228,245.630280 
	C204.419724,236.174927 204.421204,226.719574 204.708694,216.683411 
	C205.647766,215.057037 206.300842,214.011490 206.953903,212.965927 
	C206.953903,212.965927 207.402939,212.830139 207.983871,212.814789 
	C214.939713,209.878586 221.398590,207.124496 227.657776,203.973740 
	C231.364044,202.108078 234.754974,199.615952 238.287704,197.405518 
	C238.287704,197.405518 238.407684,197.358078 238.714310,197.191574 
	C236.677719,192.287704 234.392349,187.519348 231.897919,182.862991 
	C231.659836,182.418594 229.852310,182.263458 229.220779,182.669647 
	C224.665131,185.599747 220.224869,188.709259 215.748016,191.761902 
	C215.748016,191.761887 215.407516,191.954987 214.906403,192.063629 
	C210.819092,194.657166 207.232910,197.142059 203.646713,199.626938 
	C203.303024,199.747421 202.959351,199.867889 202.028168,200.078583 
	C199.549606,201.706100 197.658539,203.243408 195.767471,204.780716 
	C195.767471,204.780716 195.542221,205.147247 195.180511,205.605774 
	C194.535736,207.827942 194.029938,209.588867 194.008377,211.355698 
	C193.916977,218.842178 193.763718,226.338303 194.050079,233.814926 
	C194.209885,237.986679 193.448242,241.337097 189.589264,243.462372 
	C188.940628,243.537430 188.291992,243.612488 187.093628,243.559875 
	C185.219284,244.105331 183.894653,244.778488 182.570023,245.451645 
	C181.928497,245.528824 181.286957,245.606003 180.041870,245.545929 
	C173.677155,246.869873 167.923569,248.173157 162.152359,245.385376 
	C161.822311,245.225937 161.228378,245.612854 160.757248,245.745499 
	C160.060120,245.601227 159.362991,245.456940 158.169128,244.997940 
	C156.113571,244.345276 154.554779,244.007339 152.995972,243.669388 
	C152.643967,243.616241 152.291962,243.563095 151.464020,243.227325 
	C147.733124,241.391129 146.825104,238.787979 146.911469,235.273254 
	C147.114029,227.029022 147.055038,218.774918 146.905106,210.528381 
	C146.875168,208.880814 145.969482,207.249146 145.467606,205.610153 
	C145.467606,205.610153 145.364777,205.217072 145.200912,204.705322 
	C138.635941,200.239227 132.234833,196.284912 125.833733,192.330582 
	C125.543945,192.100647 125.254158,191.870712 124.552223,191.240265 
	C120.804314,188.838013 117.468552,186.836258 114.132790,184.834503 
	C114.132790,184.834503 113.782730,184.648209 113.440277,184.302948 
	C108.010849,179.411224 107.349800,185.021530 105.909004,187.413208 
	C98.821732,199.177902 99.723518,197.278961 110.228630,202.536514 
	C119.076126,206.964478 127.729546,211.780228 136.468872,216.424316 
	C136.490036,225.848236 136.511215,235.272171 136.246613,245.282303 
	C135.592377,246.529373 135.223923,247.190231 134.855453,247.851089 
	C134.855453,247.851089 134.997650,248.000000 134.580292,247.969330 
	C130.380127,250.902359 126.597336,253.866074 122.814560,256.829834 
	C122.356308,257.140869 121.898048,257.451935 120.938713,257.977844 
	C117.637924,260.471313 114.838203,262.749908 112.038483,265.028503 
	C111.724709,265.121368 111.432014,265.259064 110.633553,265.664520 
	C106.653603,267.217316 104.048553,271.871643 99.424820,268.612335 
	C99.424820,268.612335 99.322998,268.236176 99.203842,267.725677 
	C98.022835,265.848877 96.960968,264.482605 95.899101,263.116302 
	C95.899101,263.116302 95.959953,263.023010 95.930084,262.696106 
	C93.436310,258.771515 90.972397,255.173782 88.508484,251.576065 
z"/>
<path fill="#171721" opacity="1.000000" stroke="none" 
	d="
M173.103394,271.282043 
	C172.564407,266.403809 174.357941,263.842529 178.629471,262.122040 
	C185.235199,259.461395 191.592712,256.167053 197.980255,252.990173 
	C200.755569,251.609848 202.870575,251.878159 205.116104,254.116882 
	C212.062698,261.042389 219.117905,267.860931 226.221725,274.625671 
	C228.571564,276.863373 228.436737,278.716095 226.246796,280.945129 
	C222.052750,285.214020 218.093811,289.717987 213.815033,293.896820 
	C212.651978,295.032715 210.599121,296.115814 209.116974,295.929779 
	C198.077103,294.544159 187.056732,292.955841 176.096527,291.049927 
	C174.889786,290.840088 173.370453,288.280090 173.253799,286.716278 
	C172.883255,281.749268 173.107971,276.737854 173.103394,271.282043 
z"/>
<path fill="#15161D" opacity="1.000000" stroke="none" 
	d="
M164.572983,291.452393 
	C163.620926,291.512848 162.668884,291.573303 161.049255,291.484680 
	C157.457001,292.068451 154.532333,292.801331 151.607651,293.534210 
	C150.647217,293.591156 149.686798,293.648132 148.048309,293.550537 
	C144.768829,293.666168 142.068924,293.585266 139.587021,294.281464 
	C134.811249,295.621185 130.286911,295.855713 125.945984,293.077576 
	C125.835083,292.769836 125.675117,292.490143 125.229744,291.776428 
	C124.371025,290.835693 123.748672,290.357025 123.126312,289.878387 
	C123.126312,289.878387 122.999695,289.997864 123.012558,289.635071 
	C122.406593,288.797028 121.787773,288.321808 121.168945,287.846588 
	C121.168938,287.846588 120.997368,287.975098 121.040665,287.596436 
	C120.458130,286.734497 119.832298,286.251190 119.206467,285.767853 
	C119.077751,285.484680 118.892639,285.245056 118.413811,284.582916 
	C116.565262,281.900787 114.954056,279.684784 113.326729,277.446564 
	C118.005829,272.363312 122.629494,267.340302 127.253151,262.317261 
	C127.253151,262.317261 127.258125,262.258057 127.607101,262.184937 
	C128.897263,261.025177 129.838455,259.938568 130.779633,258.851959 
	C130.779648,258.851959 130.849243,258.855804 131.181854,258.842529 
	C131.936951,258.171722 132.359406,257.514252 132.781876,256.856750 
	C132.781876,256.856750 132.852005,256.856201 133.184082,256.838440 
	C133.951218,256.173431 134.386261,255.526230 134.821289,254.879013 
	C134.821289,254.879013 134.891754,254.891953 135.212860,254.863556 
	C135.984879,254.195984 136.435806,253.556824 136.886719,252.917648 
	C136.886719,252.917648 136.967834,252.962570 137.360611,252.946075 
	C139.193741,253.125854 140.774658,253.005600 142.050598,253.572159 
	C148.194000,256.300110 154.137527,259.511932 160.380844,261.970978 
	C165.882614,264.137970 167.775970,267.688599 167.121933,273.387878 
	C166.691299,277.140594 167.327301,281.012970 166.931412,284.773407 
	C166.690979,287.057190 165.394852,289.229828 164.572983,291.452393 
z"/>
<path fill="#1A1828" opacity="1.000000" stroke="none" 
	d="
M152.523224,321.446411 
	C149.545441,320.262360 147.005936,318.903259 144.297165,318.281708 
	C140.175674,317.336060 139.038437,314.753052 139.222977,310.983337 
	C139.320465,308.991760 138.655777,306.729675 139.399002,305.064545 
	C140.244720,303.169739 142.018707,300.898773 143.841873,300.378998 
	C149.287857,298.826416 154.069992,299.047150 157.766708,305.059845 
	C161.878723,311.748047 179.217377,312.162262 184.980347,303.010315 
	C187.384171,299.192902 193.456619,297.887909 198.545807,300.674042 
	C200.400421,301.689362 201.416885,305.543457 201.543411,308.163849 
	C201.932602,316.225037 201.127777,317.015656 193.646469,319.615723 
	C187.696548,321.683594 181.699493,323.637817 175.842163,325.944214 
	C169.527145,328.430878 164.164993,325.240051 158.528610,323.539612 
	C156.625931,322.965576 154.765457,322.251648 152.523224,321.446411 
z"/>
<path fill="#56339E" opacity="1.000000" stroke="none" 
	d="
M164.963181,291.607056 
	C165.394852,289.229828 166.690979,287.057190 166.931412,284.773407 
	C167.327301,281.012970 166.691299,277.140594 167.121933,273.387878 
	C167.775970,267.688599 165.882614,264.137970 160.380844,261.970978 
	C154.137527,259.511932 148.194000,256.300110 142.050598,253.572159 
	C140.774658,253.005600 139.193741,253.125854 137.335754,252.906952 
	C138.729935,252.476974 140.902344,251.215820 142.293900,251.803528 
	C150.179138,255.133896 157.982742,258.706451 165.557465,262.685211 
	C167.226837,263.562073 168.678055,266.357330 168.815872,268.366211 
	C169.236069,274.491150 169.224533,280.681427 168.799164,286.805847 
	C168.679459,288.529266 166.557159,290.113617 164.963181,291.607056 
z"/>
<path fill="#56339E" opacity="1.000000" stroke="none" 
	d="
M136.605591,216.066406 
	C127.729546,211.780228 119.076126,206.964478 110.228630,202.536514 
	C99.723518,197.278961 98.821732,199.177902 105.909004,187.413208 
	C107.349800,185.021530 108.010849,179.411224 113.248634,184.252090 
	C109.532570,185.244797 103.063957,192.645279 103.646515,196.178574 
	C103.822296,197.244705 105.456764,198.339722 106.663910,198.923248 
	C115.273743,203.085037 124.001625,207.006561 132.551254,211.285645 
	C134.258484,212.140106 135.360962,214.202881 136.605591,216.066406 
z"/>
<path fill="#56339E" opacity="1.000000" stroke="none" 
	d="
M189.971344,243.615051 
	C193.448242,241.337097 194.209885,237.986679 194.050079,233.814926 
	C193.763718,226.338303 193.916977,218.842178 194.008377,211.355698 
	C194.029938,209.588867 194.535736,207.827942 195.119598,205.812073 
	C195.587479,216.606247 195.999741,227.660004 195.669022,238.691467 
	C195.616745,240.435120 192.209473,242.078171 189.971344,243.615051 
z"/>
<path fill="#56339E" opacity="1.000000" stroke="none" 
	d="
M145.313354,206.089340 
	C145.969482,207.249146 146.875168,208.880814 146.905106,210.528381 
	C147.055038,218.774918 147.114029,227.029022 146.911469,235.273254 
	C146.825104,238.787979 147.733124,241.391129 151.197418,243.211243 
	C146.642685,244.304535 145.062729,241.540359 145.043106,237.503616 
	C144.992966,227.192352 145.109344,216.880280 145.313354,206.089340 
z"/>
<path fill="#56339E" opacity="1.000000" stroke="none" 
	d="
M216.118637,191.818558 
	C220.224869,188.709259 224.665131,185.599747 229.220779,182.669647 
	C229.852310,182.263458 231.659836,182.418594 231.897919,182.862991 
	C234.392349,187.519348 236.677719,192.287704 238.753601,197.140411 
	C236.902420,194.355316 235.276367,191.476929 233.745544,188.548782 
	C231.871704,184.964462 229.640350,183.676727 225.869675,186.401855 
	C222.949539,188.512268 219.630783,190.071152 216.118637,191.818558 
z"/>
<path fill="#56339E" opacity="1.000000" stroke="none" 
	d="
M237.919052,197.324173 
	C234.754974,199.615952 231.364044,202.108078 227.657776,203.973740 
	C221.398590,207.124496 214.939713,209.878586 208.198120,212.719315 
	C208.730820,211.778107 209.486115,210.620224 210.552246,210.102676 
	C219.519379,205.749634 228.543457,201.513885 237.919052,197.324173 
z"/>
<path fill="#56339E" opacity="1.000000" stroke="none" 
	d="
M242.145050,267.812927 
	C245.994797,260.743103 250.420334,253.783432 254.260666,246.514587 
	C255.359482,244.434769 254.763611,241.459595 254.890198,238.513947 
	C259.042755,239.822266 258.371674,243.251434 256.775055,245.899033 
	C252.276733,253.358337 247.291702,260.524139 242.145050,267.812927 
z"/>
<path fill="#56339E" opacity="1.000000" stroke="none" 
	d="
M224.559021,153.129959 
	C226.334366,150.466034 228.458084,147.791397 230.581802,145.116776 
	C230.225906,144.602829 229.870010,144.088898 229.514130,143.574966 
	C224.161972,145.576584 218.809830,147.578217 213.105606,149.443146 
	C217.868683,146.900345 222.915787,144.322968 228.159119,142.239380 
	C229.152405,141.844681 231.532303,143.071075 232.147217,144.175766 
	C232.651123,145.081085 231.880173,147.292938 230.968689,148.261673 
	C229.211838,150.128860 226.956207,151.526764 224.559021,153.129959 
z"/>
<path fill="#56339E" opacity="1.000000" stroke="none" 
	d="
M126.905983,262.263916 
	C122.629494,267.340302 118.005829,272.363312 113.326729,277.446564 
	C114.954056,279.684784 116.565262,281.900787 118.220985,284.460022 
	C110.559601,280.023254 110.101707,277.334198 116.254158,271.394379 
	C119.561668,268.201172 123.115898,265.263519 126.905983,262.263916 
z"/>
<path fill="#56339E" opacity="1.000000" stroke="none" 
	d="
M155.093842,160.028015 
	C146.792953,156.923691 138.346176,153.533371 129.727676,149.856018 
	C138.019943,152.960007 146.483948,156.351013 155.093842,160.028015 
z"/>
<path fill="#56339E" opacity="1.000000" stroke="none" 
	d="
M125.990204,293.446899 
	C130.286911,295.855713 134.811249,295.621185 139.587021,294.281464 
	C142.068924,293.585266 144.768829,293.666168 147.689560,293.591278 
	C141.859390,294.831482 135.729233,296.043549 129.541611,296.758331 
	C128.499756,296.878693 127.209770,294.851288 125.990204,293.446899 
z"/>
<path fill="#56339E" opacity="1.000000" stroke="none" 
	d="
M88.242783,176.909073 
	C86.933319,179.937531 85.758987,183.425201 83.599037,186.124069 
	C80.572510,189.905731 80.614075,193.034622 83.874779,196.722412 
	C78.550812,194.225693 77.840614,192.300766 80.780045,187.546768 
	C83.010048,183.940140 85.541046,180.519623 88.242783,176.909073 
z"/>
<path fill="#56339E" opacity="1.000000" stroke="none" 
	d="
M205.730591,151.609482 
	C201.466995,154.051392 196.993912,156.339874 192.441467,158.457672 
	C190.533478,159.345276 188.457260,159.871185 186.105988,160.423355 
	C188.544952,158.702698 191.232513,156.887283 194.151993,155.596481 
	C197.832001,153.969406 201.701370,152.770645 205.730591,151.609482 
z"/>
<path fill="#56339E" opacity="1.000000" stroke="none" 
	d="
M253.126434,201.780975 
	C254.065475,199.879227 255.039413,197.649475 256.703918,196.228760 
	C260.058411,193.365570 260.828949,190.584015 257.839661,187.076004 
	C257.333038,186.481461 257.161835,185.601074 256.840759,184.485046 
	C262.604279,187.836960 263.332153,191.760162 259.028870,196.366684 
	C257.259369,198.260895 255.330246,200.006027 253.126434,201.780975 
z"/>
<path fill="#56339E" opacity="1.000000" stroke="none" 
	d="
M125.920700,192.645203 
	C132.234833,196.284912 138.635941,200.239227 145.098099,204.530090 
	C138.775330,200.897690 132.391495,196.928772 125.920700,192.645203 
z"/>
<path fill="#56339E" opacity="1.000000" stroke="none" 
	d="
M160.929062,246.033020 
	C161.228378,245.612854 161.822311,245.225937 162.152359,245.385376 
	C167.923569,248.173157 173.677155,246.869873 179.723022,245.598557 
	C174.856812,249.602020 166.778336,249.829376 160.929062,246.033020 
z"/>
<path fill="#56339E" opacity="1.000000" stroke="none" 
	d="
M110.500137,142.908249 
	C112.104950,145.356384 113.163353,147.930893 114.656540,150.222031 
	C115.706017,151.832352 117.347351,153.056931 118.773590,154.788239 
	C115.366943,152.297562 111.836464,149.552765 108.573082,146.520508 
	C108.253761,146.223801 109.578087,144.158127 110.500137,142.908249 
z"/>
<path fill="#56339E" opacity="1.000000" stroke="none" 
	d="
M89.756691,232.095016 
	C89.176361,233.803528 88.489456,235.723953 87.270653,237.207397 
	C84.507187,240.570862 84.090340,243.892105 86.539825,247.860870 
	C82.512497,245.712662 82.009171,242.349945 84.381630,238.597900 
	C85.837334,236.295700 87.718513,234.262512 89.756691,232.095016 
z"/>
<path fill="#56339E" opacity="1.000000" stroke="none" 
	d="
M127.866570,148.895828 
	C122.808678,147.264038 117.610237,145.293747 112.226166,143.021225 
	C117.269028,144.665100 122.497528,146.611221 127.866570,148.895828 
z"/>
<path fill="#56339E" opacity="1.000000" stroke="none" 
	d="
M234.401031,167.841431 
	C230.025726,170.806870 225.291763,173.794250 220.197693,176.731262 
	C224.572525,173.741730 229.307449,170.802567 234.401031,167.841431 
z"/>
<path fill="#56339E" opacity="1.000000" stroke="none" 
	d="
M127.195999,163.154739 
	C131.068802,166.030380 134.928299,169.251785 138.780106,172.811951 
	C134.909164,169.933990 131.045944,166.717239 127.195999,163.154739 
z"/>
<path fill="#56339E" opacity="1.000000" stroke="none" 
	d="
M218.074158,177.415283 
	C213.896530,180.389801 209.357849,183.233582 204.457260,186.101196 
	C208.634613,183.178192 213.173874,180.231354 218.074158,177.415283 
z"/>
<path fill="#56339E" opacity="1.000000" stroke="none" 
	d="
M136.842667,185.822449 
	C132.201538,183.496078 127.545120,180.817139 122.716743,177.863647 
	C127.305649,180.216019 132.066513,182.842941 136.842667,185.822449 
z"/>
<path fill="#56339E" opacity="1.000000" stroke="none" 
	d="
M123.183456,256.893127 
	C126.597336,253.866074 130.380127,250.902359 134.507172,247.896576 
	C131.085068,250.888489 127.318703,253.922455 123.183456,256.893127 
z"/>
<path fill="#56339E" opacity="1.000000" stroke="none" 
	d="
M98.693802,219.058136 
	C96.387947,223.059097 93.738731,227.090485 90.805740,231.277130 
	C93.131462,227.317795 95.740952,223.203186 98.693802,219.058136 
z"/>
<path fill="#56339E" opacity="1.000000" stroke="none" 
	d="
M99.336853,268.994873 
	C104.048553,271.871643 106.653603,267.217316 110.451599,265.826050 
	C108.271400,267.838867 105.879753,270.133453 103.113380,271.809570 
	C102.530411,272.162750 100.572998,270.247437 99.336853,268.994873 
z"/>
<path fill="#56339E" opacity="1.000000" stroke="none" 
	d="
M230.140320,266.188293 
	C231.787949,266.771973 233.344254,268.053772 235.119598,268.546570 
	C236.917450,269.045624 238.931931,268.764313 241.164490,268.690308 
	C241.660049,273.074432 238.712296,272.563049 236.248352,271.335327 
	C233.980576,270.205322 232.161713,268.174377 230.140320,266.188293 
z"/>
<path fill="#56339E" opacity="1.000000" stroke="none" 
	d="
M173.739517,164.643768 
	C169.465225,169.697906 166.103134,164.783951 162.168640,163.159729 
	C165.849564,163.357056 169.674301,163.886124 173.739517,164.643768 
z"/>
<path fill="#56339E" opacity="1.000000" stroke="none" 
	d="
M202.489563,173.066254 
	C205.243027,170.124237 208.339584,167.142685 211.782608,164.196625 
	C209.030258,167.163651 205.931458,170.095184 202.489563,173.066254 
z"/>
<path fill="#56339E" opacity="1.000000" stroke="none" 
	d="
M204.010895,199.712433 
	C207.232910,197.142059 210.819092,194.657166 214.764984,192.198975 
	C211.541489,194.749756 207.958282,197.273834 204.010895,199.712433 
z"/>
<path fill="#56339E" opacity="1.000000" stroke="none" 
	d="
M88.391747,251.937271 
	C90.972397,255.173782 93.436310,258.771515 95.886108,262.730286 
	C93.339668,259.493744 90.807335,255.896103 88.391747,251.937271 
z"/>
<path fill="#56339E" opacity="1.000000" stroke="none" 
	d="
M249.807602,229.901215 
	C247.161346,226.768921 244.569687,223.272064 241.940948,219.424072 
	C244.556656,222.560852 247.209427,226.048752 249.807602,229.901215 
z"/>
<path fill="#56339E" opacity="1.000000" stroke="none" 
	d="
M249.186996,171.332291 
	C246.722794,169.262970 244.226395,166.843521 241.419830,164.304001 
	C242.074280,160.292892 244.014084,162.406128 245.076675,163.828613 
	C246.706833,166.010849 247.821411,168.578232 249.186996,171.332291 
z"/>
<path fill="#56339E" opacity="1.000000" stroke="none" 
	d="
M256.662323,183.020645 
	C254.123688,179.765167 251.680832,176.146835 249.290802,172.167236 
	C251.815125,175.423248 254.286621,179.040512 256.662323,183.020645 
z"/>
<path fill="#56339E" opacity="1.000000" stroke="none" 
	d="
M245.459381,210.040863 
	C247.447021,207.364365 249.768326,204.637589 252.415314,201.846039 
	C250.425018,204.517715 248.109024,207.254135 245.459381,210.040863 
z"/>
<path fill="#56339E" opacity="1.000000" stroke="none" 
	d="
M152.040771,293.691956 
	C154.532333,292.801331 157.457001,292.068451 160.693573,291.525421 
	C158.161591,292.426758 155.317734,293.138245 152.040771,293.691956 
z"/>
<path fill="#56339E" opacity="1.000000" stroke="none" 
	d="
M114.152618,185.185333 
	C117.468552,186.836258 120.804314,188.838013 124.304550,191.114349 
	C121.036835,189.438004 117.604637,187.487076 114.152618,185.185333 
z"/>
<path fill="#56339E" opacity="1.000000" stroke="none" 
	d="
M112.391296,265.015594 
	C114.838203,262.749908 117.637924,260.471313 120.791977,258.218567 
	C118.345581,260.497192 115.544846,262.749939 112.391296,265.015594 
z"/>
<path fill="#56339E" opacity="1.000000" stroke="none" 
	d="
M140.964203,175.429001 
	C143.162933,177.561768 145.394867,180.034119 147.438782,182.756836 
	C145.166306,180.594345 143.081848,178.181458 140.964203,175.429001 
z"/>
<path fill="#56339E" opacity="1.000000" stroke="none" 
	d="
M215.187286,255.163208 
	C217.801926,256.604645 220.404648,258.395782 223.094894,260.512390 
	C220.513412,259.062897 217.844406,257.287903 215.187286,255.163208 
z"/>
<path fill="#56339E" opacity="1.000000" stroke="none" 
	d="
M114.864525,172.792572 
	C112.023529,171.610306 109.159279,170.075684 106.229103,168.202515 
	C109.055878,169.389389 111.948570,170.914810 114.864525,172.792572 
z"/>
<path fill="#56339E" opacity="1.000000" stroke="none" 
	d="
M88.152710,202.185516 
	C90.080566,203.692108 91.978394,205.550949 93.868195,207.755585 
	C91.947670,206.246857 90.035172,204.392319 88.152710,202.185516 
z"/>
<path fill="#56339E" opacity="1.000000" stroke="none" 
	d="
M196.177063,178.833008 
	C197.688324,176.918396 199.551865,175.028564 201.760376,173.142761 
	C200.246658,175.050461 198.387985,176.954117 196.177063,178.833008 
z"/>
<path fill="#56339E" opacity="1.000000" stroke="none" 
	d="
M94.503708,166.958298 
	C93.507462,169.267288 92.170731,171.624771 90.524811,174.104645 
	C91.531487,171.820297 92.847359,169.413544 94.503708,166.958298 
z"/>
<path fill="#56339E" opacity="1.000000" stroke="none" 
	d="
M208.961746,250.491760 
	C210.936142,251.491806 212.962967,252.826477 215.081573,254.479095 
	C213.120300,253.473480 211.067245,252.149933 208.961746,250.491760 
z"/>
<path fill="#56339E" opacity="1.000000" stroke="none" 
	d="
M196.128052,204.800812 
	C197.658539,203.243408 199.549606,201.706100 201.789886,200.212891 
	C200.255600,201.778290 198.372116,203.299606 196.128052,204.800812 
z"/>
<path fill="#56339E" opacity="1.000000" stroke="none" 
	d="
M241.682404,217.986847 
	C238.722580,215.879791 240.270569,214.008682 242.788132,212.215179 
	C242.696823,213.999908 242.255096,215.796219 241.682404,217.986847 
z"/>
<path fill="#56339E" opacity="1.000000" stroke="none" 
	d="
M153.133453,243.992523 
	C154.554779,244.007339 156.113571,244.345276 157.812271,244.986206 
	C156.391754,244.964706 154.831329,244.640198 153.133453,243.992523 
z"/>
<path fill="#56339E" opacity="1.000000" stroke="none" 
	d="
M121.056808,176.434021 
	C119.390572,175.846634 117.652153,174.930786 115.766769,173.719604 
	C117.408081,174.318039 119.196358,175.211807 121.056808,176.434021 
z"/>
<path fill="#56339E" opacity="1.000000" stroke="none" 
	d="
M240.069794,164.389374 
	C238.793625,165.615860 237.166489,166.719345 235.189087,167.780518 
	C236.465469,166.580933 238.092148,165.423676 240.069794,164.389374 
z"/>
<path fill="#56339E" opacity="1.000000" stroke="none" 
	d="
M106.046387,167.487061 
	C104.378410,166.918015 102.635132,166.016953 100.724136,164.838806 
	C102.361305,165.426178 104.166191,166.290604 106.046387,167.487061 
z"/>
<path fill="#56339E" opacity="1.000000" stroke="none" 
	d="
M254.633469,237.048950 
	C253.327606,235.877335 252.128937,234.345474 250.880157,232.477509 
	C252.133591,233.657166 253.437119,235.172943 254.633469,237.048950 
z"/>
<path fill="#56339E" opacity="1.000000" stroke="none" 
	d="
M203.024750,186.328430 
	C201.764175,187.548157 200.150116,188.667236 198.188309,189.737213 
	C199.450790,188.534653 201.061020,187.381210 203.024750,186.328430 
z"/>
<path fill="#56339E" opacity="1.000000" stroke="none" 
	d="
M143.049866,189.449371 
	C141.383331,188.869080 139.645004,187.958908 137.751862,186.759827 
	C139.390717,187.353775 141.184402,188.236633 143.049866,189.449371 
z"/>
<path fill="#56339E" opacity="1.000000" stroke="none" 
	d="
M99.844421,163.900696 
	C98.759659,164.486404 97.677658,164.727005 96.261589,164.924225 
	C96.585617,162.521194 97.501884,160.925125 99.844421,163.900696 
z"/>
<path fill="#56339E" opacity="1.000000" stroke="none" 
	d="
M204.298965,245.988403 
	C205.638275,246.810486 206.858307,247.990692 208.148010,249.487915 
	C206.871704,248.652130 205.525711,247.499329 204.298965,245.988403 
z"/>
<path fill="#56339E" opacity="1.000000" stroke="none" 
	d="
M182.933105,245.611755 
	C183.894653,244.778488 185.219284,244.105331 186.773438,243.624298 
	C185.767365,244.468246 184.531769,245.120071 182.933105,245.611755 
z"/>
<path fill="#56339E" opacity="1.000000" stroke="none" 
	d="
M95.900681,263.475891 
	C96.960968,264.482605 98.022835,265.848877 99.110672,267.554535 
	C98.058533,266.541077 96.980400,265.188263 95.900681,263.475891 
z"/>
<path fill="#56339E" opacity="1.000000" stroke="none" 
	d="
M130.442017,258.901672 
	C129.838455,259.938568 128.897263,261.025177 127.636765,262.183533 
	C128.246445,261.153961 129.175415,260.052704 130.442017,258.901672 
z"/>
<path fill="#56339E" opacity="1.000000" stroke="none" 
	d="
M178.772308,162.593155 
	C178.114639,163.418961 177.262787,164.051575 176.089966,164.554398 
	C176.705353,163.749725 177.641739,163.074844 178.772308,162.593155 
z"/>
<path fill="#56339E" opacity="1.000000" stroke="none" 
	d="
M194.038040,181.882660 
	C194.213058,180.984680 194.717834,179.962906 195.514862,178.885849 
	C195.327332,179.806671 194.847565,180.782776 194.038040,181.882660 
z"/>
<path fill="#56339E" opacity="1.000000" stroke="none" 
	d="
M183.764648,160.552322 
	C183.104843,161.370285 182.253174,161.998947 181.080841,162.488968 
	C181.697723,161.687897 182.635254,161.025452 183.764648,160.552322 
z"/>
<path fill="#56339E" opacity="1.000000" stroke="none" 
	d="
M210.766647,149.566010 
	C210.108963,150.387283 209.257858,151.019058 208.086014,151.516556 
	C208.701248,150.713699 209.637222,150.045105 210.766647,149.566010 
z"/>
<path fill="#56339E" opacity="1.000000" stroke="none" 
	d="
M223.941071,261.530853 
	C224.951630,261.827332 226.010696,262.465271 227.178497,263.412567 
	C226.188019,263.105377 225.088791,262.488861 223.941071,261.530853 
z"/>
<path fill="#56339E" opacity="1.000000" stroke="none" 
	d="
M206.592377,212.982910 
	C206.300842,214.011490 205.647766,215.057037 204.710266,216.239899 
	C205.027496,215.251419 205.629166,214.125656 206.592377,212.982910 
z"/>
<path fill="#56339E" opacity="1.000000" stroke="none" 
	d="
M160.127228,162.129974 
	C159.242569,162.074173 158.254105,161.761307 157.148575,161.121857 
	C158.028809,161.154480 159.026138,161.513702 160.127228,162.129974 
z"/>
<path fill="#56339E" opacity="1.000000" stroke="none" 
	d="
M123.117691,290.216553 
	C123.748672,290.357025 124.371025,290.835693 125.046631,291.617310 
	C124.436279,291.465088 123.772675,291.009888 123.117691,290.216553 
z"/>
<path fill="#56339E" opacity="1.000000" stroke="none" 
	d="
M121.146820,288.185425 
	C121.787773,288.321808 122.406593,288.797028 123.074554,289.573608 
	C122.457367,289.424683 121.791031,288.974457 121.146820,288.185425 
z"/>
<path fill="#56339E" opacity="1.000000" stroke="none" 
	d="
M119.170609,286.111633 
	C119.832298,286.251190 120.458130,286.734497 121.122177,287.526062 
	C120.485184,287.374695 119.809975,286.915070 119.170609,286.111633 
z"/>
<path fill="#56339E" opacity="1.000000" stroke="none" 
	d="
M132.488617,256.908142 
	C132.359406,257.514252 131.936951,258.171722 131.188370,258.808289 
	C131.306641,258.178070 131.751007,257.568817 132.488617,256.908142 
z"/>
<path fill="#56339E" opacity="1.000000" stroke="none" 
	d="
M95.901382,210.518372 
	C96.489044,210.657990 97.128159,211.083633 97.732079,211.833405 
	C97.115547,211.706482 96.534195,211.255432 95.901382,210.518372 
z"/>
<path fill="#56339E" opacity="1.000000" stroke="none" 
	d="
M134.527679,254.930511 
	C134.386261,255.526230 133.951218,256.173431 133.189133,256.803711 
	C133.319427,256.185211 133.776749,255.583603 134.527679,254.930511 
z"/>
<path fill="#56339E" opacity="1.000000" stroke="none" 
	d="
M136.586411,252.962433 
	C136.435806,253.556824 135.984879,254.195984 135.206573,254.828278 
	C135.348160,254.216675 135.817123,253.611954 136.586411,252.962433 
z"/>
<path fill="#56339E" opacity="1.000000" stroke="none" 
	d="
M135.218231,247.853149 
	C135.223923,247.190231 135.592377,246.529373 136.210693,245.719940 
	C136.167389,246.332642 135.874207,247.093933 135.218231,247.853149 
z"/>
<path fill="#56339E" opacity="1.000000" stroke="none" 
	d="
M119.955795,156.463776 
	C120.561752,156.577316 121.215706,156.995590 121.891197,157.737534 
	C121.276428,157.630295 120.640114,157.199402 119.955795,156.463776 
z"/>
<path fill="#56339E" opacity="1.000000" stroke="none" 
	d="
M219.335754,157.995239 
	C219.484009,157.369888 219.947220,156.724518 220.734985,156.088120 
	C220.589951,156.723129 220.120316,157.349167 219.335754,157.995239 
z"/>
<path fill="#56339E" opacity="1.000000" stroke="none" 
	d="
M99.392487,214.886658 
	C99.795731,215.308487 100.054955,216.031570 100.056999,216.862854 
	C99.616028,216.376694 99.432243,215.782303 99.392487,214.886658 
z"/>
<path fill="#56339E" opacity="1.000000" stroke="none" 
	d="
M216.168228,160.824127 
	C216.310944,160.189331 216.795135,159.578857 217.577728,158.910019 
	C217.420639,159.517258 216.965164,160.182861 216.168228,160.824127 
z"/>
<path fill="#56339E" opacity="1.000000" stroke="none" 
	d="
M243.494507,212.067047 
	C243.611252,211.463638 244.023071,210.796890 244.763123,210.127716 
	C244.657410,210.751419 244.223495,211.377548 243.494507,212.067047 
z"/>
<path fill="#56339E" opacity="1.000000" stroke="none" 
	d="
M93.945854,208.435699 
	C94.536110,208.590424 95.170731,209.042572 95.786560,209.822083 
	C95.175255,209.677353 94.582733,209.205231 93.945854,208.435699 
z"/>
<path fill="#56339E" opacity="1.000000" stroke="none" 
	d="
M125.130226,161.191650 
	C125.762070,161.299164 126.398575,161.748520 127.108589,162.493317 
	C126.499702,162.370331 125.817299,161.951904 125.130226,161.191650 
z"/>
<path fill="#56339E" opacity="1.000000" stroke="none" 
	d="
M86.211502,200.130737 
	C86.864967,200.262726 87.476814,200.737381 88.128654,201.515564 
	C87.502396,201.370514 86.836136,200.921967 86.211502,200.130737 
z"/>
<path fill="#56339E" opacity="1.000000" stroke="none" 
	d="
M214.077377,162.790314 
	C214.222321,162.137482 214.713043,161.528000 215.502777,160.868591 
	C215.342224,161.490311 214.882690,162.161987 214.077377,162.790314 
z"/>
<path fill="#56339E" opacity="1.000000" stroke="none" 
	d="
M84.259323,198.025864 
	C84.922539,198.163834 85.534378,198.651688 86.184189,199.444199 
	C85.550758,199.291153 84.879356,198.833466 84.259323,198.025864 
z"/>
<path fill="#56339E" opacity="1.000000" stroke="none" 
	d="
M196.021942,190.393402 
	C195.577225,190.619797 194.724960,190.660126 193.852753,190.420792 
	C194.426651,190.163193 195.020523,190.185257 196.021942,190.393402 
z"/>
<path fill="#56339E" opacity="1.000000" stroke="none" 
	d="
M146.656662,190.070953 
	C146.358887,190.394485 145.622604,190.715607 144.724319,190.820404 
	C145.114258,190.425568 145.666214,190.247040 146.656662,190.070953 
z"/>
<path fill="#56339E" opacity="1.000000" stroke="none" 
	d="
M138.914093,173.528351 
	C139.534210,173.624832 140.216217,174.020050 140.904861,174.741425 
	C140.266312,174.654083 139.621155,174.240570 138.914093,173.528351 
z"/>
</svg>